<svg width="116" height="116" viewBox="0 0 116 116" fill="none" xmlns="http://www.w3.org/2000/svg">
<path d="M94.945 91.6805H84.4305C84.3569 91.9665 84.2161 92.2309 84.0197 92.4514C83.8233 92.672 83.577 92.8425 83.3014 92.9486C83.3449 93.0112 84.7381 95.0231 85.387 95.9686C85.5366 96.132 85.6342 96.3363 85.6673 96.5554C85.6671 96.6883 85.6268 96.8181 85.5516 96.9277C85.4765 97.0374 85.3701 97.1218 85.2462 97.17C85.1223 97.2183 84.9868 97.228 84.8573 97.1981C84.7278 97.1681 84.6104 97.0998 84.5203 97.0021C83.9466 96.4034 83.3696 95.8078 82.7893 95.2155C82.6497 95.3893 82.4828 95.5393 82.2952 95.6598C81.6501 96.024 80.9163 96.2016 80.1761 96.1725C80.3302 96.3691 80.443 96.5948 80.5077 96.836C80.5724 97.0773 80.5877 97.3292 80.5527 97.5765C80.5176 97.8238 80.4329 98.0615 80.3037 98.2753C80.1745 98.4891 80.0034 98.6745 79.8007 98.8205C79.288 99.2069 78.7222 99.5172 78.1207 99.7416C77.3676 100.031 76.6232 100.345 75.8706 100.638C69.3244 103.187 62.6873 105.315 55.7819 106.228C55.7819 106.462 55.7929 106.714 55.7929 106.714C55.7936 106.77 55.8163 106.823 55.856 106.863C55.8957 106.903 55.9494 106.925 56.0055 106.926H94.9433C94.9994 106.925 95.0531 106.903 95.0928 106.863C95.1325 106.823 95.1551 106.77 95.1559 106.714V91.8931C95.1551 91.8373 95.1327 91.7839 95.0934 91.7442C95.0541 91.7045 95.0009 91.6817 94.945 91.6805Z" fill="#FFF0B3"/>
<path d="M85.3903 95.9685C84.7403 95.0231 83.3471 93.014 83.3048 92.9485C83.2268 92.975 83.1465 92.9944 83.065 93.0065C83.2405 93.3606 83.3083 93.7584 83.2601 94.1507C83.2119 94.543 83.0498 94.9125 82.7939 95.2136L84.4854 96.9516C84.5695 97.0611 84.6856 97.1416 84.8177 97.1817C84.9497 97.2219 85.091 97.2198 85.2218 97.1757C85.3526 97.1316 85.4663 97.0476 85.547 96.9357C85.6277 96.8237 85.6714 96.6893 85.6719 96.5513C85.6376 96.3335 85.5396 96.1307 85.3903 95.9685Z" fill="#2755A0"/>
<path d="M66.2691 69.5445C66.2439 69.5084 66.2055 69.4835 66.1622 69.4753C66.1189 69.467 66.0741 69.4761 66.0374 69.5005C65.9094 69.588 64.8678 70.4546 61.9005 72.904C61.8619 72.9444 61.8404 72.9981 61.8404 73.054C61.8404 73.1099 61.8619 73.1636 61.9005 73.204C64.3672 75.8689 64.6036 76.3451 70.8798 82.9191C73.014 82.7705 75.1498 83.1831 77.075 84.1159C73.2678 78.7979 66.3178 69.6077 66.2691 69.5445Z" fill="#2755A0"/>
<path d="M68.1921 9.18253C67.8619 8.17449 67.281 7.26684 66.5041 6.54468C65.7271 5.82252 64.7794 5.30952 63.75 5.05378C62.5653 4.75891 65.3425 4.84813 25.5259 4.84813C25.1146 4.84813 24.7004 4.8377 24.2903 4.87593C22.7029 5.02266 21.2276 5.757 20.1536 6.93497C19.0796 8.11295 18.4843 9.64961 18.4844 11.2437V23.8269C22.5315 21.9581 26.5652 24.1652 27.2557 27.4766C30.7067 24.8898 34.3569 22.5802 38.1723 20.5695C39.1791 20.0712 40.3922 19.7358 41.3515 20.5005C41.7259 20.8063 42.0189 21.1999 42.2043 21.6464C42.3897 22.0929 42.4617 22.5783 42.414 23.0593C42.1776 25.7299 39.2718 27.9597 37.1811 29.6171H68.3196C68.3756 29.6162 68.4291 29.5935 68.4687 29.5538C68.5083 29.5141 68.5308 29.4606 68.5316 29.4045V22.0015H66.7299C66.6929 22.0008 66.6566 21.9906 66.6247 21.9717C66.5928 21.9528 66.5663 21.926 66.5479 21.8938C66.5294 21.8617 66.5196 21.8253 66.5195 21.7882C66.5193 21.7511 66.5287 21.7146 66.5469 21.6823C66.6807 21.4506 67.4662 20.1048 68.5316 18.2754V13.6484C67.6232 13.9439 66.7242 13.3478 66.6274 12.1109C66.5643 11.3034 66.8997 9.95764 65.956 9.52084C65.7595 9.45265 65.5442 9.46405 65.356 9.55261C65.1678 9.64117 65.0218 9.79986 64.9491 9.99472C64.7758 10.4028 64.7054 10.8472 64.7441 11.2889C64.7562 12.0594 64.8541 13.2788 63.8699 13.4967C63.4832 13.5842 63.0779 13.531 62.7269 13.3466C62.3674 13.1193 62.1039 12.7678 61.9865 12.3589C61.8092 11.4156 61.8123 10.4473 61.9958 9.5052C62.0288 9.23756 62.4593 9.23525 62.4199 9.5052C62.3423 10.0694 62.2947 10.6374 62.2774 11.2066C62.2387 11.6862 62.3363 12.167 62.5589 12.5935C62.6353 12.7267 62.7404 12.8412 62.8665 12.9287C62.9927 13.0163 63.1367 13.0747 63.2882 13.0997C63.4396 13.1248 63.5948 13.1159 63.7424 13.0736C63.89 13.0313 64.0263 12.9568 64.1416 12.8554C64.6259 11.9597 63.9469 10.497 64.7927 9.47508C64.9277 9.30864 65.1057 9.1824 65.3075 9.11009C65.5092 9.03778 65.7269 9.02215 65.9369 9.06493C66.1347 9.12559 66.3174 9.22762 66.4728 9.36425C66.6282 9.50088 66.7528 9.66899 66.8383 9.85742C67.2531 10.7548 66.8244 11.7691 67.1905 12.6723C67.2389 12.7992 67.3134 12.9145 67.4091 13.0108C67.5049 13.1071 67.6198 13.1823 67.7464 13.2314C67.873 13.2806 68.0085 13.3026 68.1442 13.2961C68.2798 13.2896 68.4126 13.2547 68.5339 13.1937V11.947C68.5854 11.0125 68.4696 10.0763 68.1921 9.18253ZM38.6183 11.5282L35.5984 15.1778C35.6812 15.267 37.626 17.3832 38.5158 18.3519C38.7006 18.5529 38.3999 18.8541 38.2157 18.6519C38.09 18.5152 36.0647 16.2976 35.1674 15.3354C35.1293 15.2947 35.1081 15.2411 35.1081 15.1853C35.1081 15.1296 35.1293 15.076 35.1674 15.0353L38.3183 11.2304C38.4926 11.016 38.7915 11.3179 38.6183 11.5282ZM47.5733 11.7842C47.5733 11.7842 42.5038 16.9157 40.6853 18.6711C40.6449 18.708 40.5918 18.7278 40.537 18.7266C40.4823 18.7253 40.4302 18.703 40.3915 18.6642C40.3528 18.6255 40.3306 18.5733 40.3294 18.5186C40.3283 18.4638 40.3482 18.4108 40.3852 18.3704C40.884 17.8548 45.4548 13.2412 47.2726 11.483C47.313 11.446 47.3661 11.426 47.4208 11.4272C47.4756 11.4283 47.5277 11.4506 47.5665 11.4892C47.6052 11.5279 47.6276 11.58 47.6288 11.6348C47.6301 11.6895 47.6102 11.7426 47.5733 11.7831V11.7842ZM52.5646 15.3331C52.4384 15.4692 50.4073 17.681 49.5169 18.6496C49.3315 18.8518 49.032 18.5506 49.2168 18.3495L52.1336 15.1755C52.0485 15.0718 50.0354 12.6404 49.1143 11.5258C48.9405 11.3167 49.24 11.0149 49.4144 11.2258L52.5646 15.0307C52.6033 15.0713 52.6249 15.1252 52.6249 15.1813C52.6249 15.2374 52.6033 15.2913 52.5646 15.3319V15.3331Z" fill="#CCEAFF"/>
<path d="M38.3178 11.227L35.167 15.0319C35.1289 15.0726 35.1077 15.1262 35.1077 15.182C35.1077 15.2377 35.1289 15.2913 35.167 15.332C36.0643 16.2942 38.0896 18.5118 38.2153 18.6485C38.4007 18.8501 38.7002 18.5495 38.5154 18.3485L35.598 15.1744L38.6179 11.5248C38.7911 11.318 38.4922 11.0161 38.3178 11.227Z" fill="#2755A0"/>
<path d="M67.5259 36.0766C67.5803 36.0737 67.6315 36.0501 67.669 36.0106C67.7065 35.9711 67.7274 35.9187 67.7274 35.8642C67.7274 35.8098 67.7065 35.7574 67.669 35.7179C67.6315 35.6784 67.5803 35.6548 67.5259 35.6519H66.9466L66.5782 36.0766H67.5259Z" fill="#2755A0"/>
<path d="M52.133 15.1744L49.2162 18.3484C49.0314 18.5494 49.3321 18.8507 49.5163 18.6485C50.4067 17.6799 52.4378 15.4681 52.5641 15.332C52.6024 15.2914 52.6238 15.2377 52.6238 15.1819C52.6238 15.1261 52.6024 15.0724 52.5641 15.0319L49.4149 11.227C49.2411 11.0161 48.9416 11.3179 49.1148 11.5271C52.6382 15.7838 51.6858 14.6339 52.133 15.1744Z" fill="#2755A0"/>
<path d="M47.5731 11.783C47.61 11.7426 47.6299 11.6895 47.6286 11.6347C47.6273 11.58 47.605 11.5279 47.5662 11.4892C47.5275 11.4505 47.4753 11.4283 47.4206 11.4271C47.3658 11.4259 47.3128 11.4459 47.2724 11.4829C45.454 13.2411 40.8838 17.8553 40.385 18.3703C40.348 18.4107 40.328 18.4638 40.3292 18.5185C40.3303 18.5732 40.3526 18.6254 40.3913 18.6642C40.4299 18.7029 40.4821 18.7252 40.5368 18.7265C40.5915 18.7278 40.6446 18.7079 40.6851 18.671C42.5035 16.9157 47.5731 11.783 47.5731 11.783Z" fill="#2755A0"/>
<path d="M68.3745 33.3758C68.3745 30.9537 68.3901 31.0922 68.3391 31.0163C68.361 31.0571 68.3702 31.1035 68.3654 31.1495C68.3607 31.1956 68.3422 31.2392 68.3125 31.2746C68.3125 31.2746 54.4664 47.2387 53.7782 48.0248C52.8511 49.0949 51.6968 49.9445 50.3995 50.5114C49.1022 51.0784 47.6946 51.3485 46.2796 51.302H29.7478C29.6221 51.5719 29.4975 51.8425 29.3701 52.113C31.9023 51.5957 33.2271 52.4421 34.6366 51.62C34.6613 51.6061 34.6885 51.5973 34.7166 51.594C34.7447 51.5907 34.7732 51.593 34.8004 51.6008C34.8277 51.6087 34.8531 51.6218 34.8751 51.6395C34.8972 51.6572 34.9156 51.6791 34.9291 51.704C35.0414 52.3681 34.9804 53.0499 34.7519 53.6835C34.7026 53.8272 34.6476 53.9685 34.585 54.1076H46.5768C48.0085 54.1118 49.4227 53.793 50.714 53.1747C52.0053 52.5564 53.1404 51.6547 54.0348 50.5367C55.1546 49.2234 67.838 34.6271 68.2001 34.21C68.2887 34.1334 68.3498 34.0298 68.3739 33.9151C68.3839 33.7355 68.3841 33.5555 68.3745 33.3758Z" fill="#CCEAFF"/>
<path d="M68.1634 30.9119H35.6119C34.1306 32.2096 32.815 33.6955 32.5196 35.6518H41.6414C41.6958 35.6547 41.747 35.6783 41.7845 35.7178C41.822 35.7573 41.8429 35.8097 41.8429 35.8642C41.8429 35.9186 41.822 35.971 41.7845 36.0105C41.747 36.05 41.6958 36.0736 41.6414 36.0765H32.4761C32.3809 36.7499 32.5376 37.4348 32.9161 37.9999C33.2947 38.565 33.8684 38.9705 34.5274 39.1387C35.7389 39.4054 36.9633 39.61 38.1956 39.7516C41.2741 40.2151 42.2189 40.2805 43.2837 40.6936H48.2617C48.3161 40.6964 48.3674 40.72 48.4048 40.7595C48.4423 40.799 48.4632 40.8514 48.4632 40.9059C48.4632 40.9604 48.4423 41.0127 48.4048 41.0523C48.3674 41.0918 48.3161 41.1154 48.2617 41.1182H44.0455C45.7661 42.3533 45.1288 44.8739 43.3046 45.912H54.1574C54.2118 45.9148 54.263 45.9385 54.3005 45.978C54.338 46.0175 54.3589 46.0699 54.3589 46.1243C54.3589 46.1788 54.338 46.2312 54.3005 46.2707C54.263 46.3102 54.2118 46.3338 54.1574 46.3366H42.3916C41.4383 46.6412 40.4539 46.8382 39.4568 46.9241C36.843 47.1855 34.2132 47.25 31.5898 47.117C31.0112 48.5279 30.3973 49.9241 29.7487 51.3042H46.2805C47.6957 51.3504 49.1034 51.0799 50.4007 50.5125C51.698 49.9452 52.8522 49.0952 53.7791 48.0248C54.4673 47.2375 68.3134 31.2734 68.3134 31.2734C68.3408 31.243 68.3591 31.2054 68.366 31.165C68.373 31.1246 68.3683 31.0831 68.3526 31.0453C68.3369 31.0074 68.3108 30.9748 68.2773 30.9512C68.2438 30.9276 68.2043 30.914 68.1634 30.9119ZM63.3551 36.0765H55.1011C55.0467 36.0736 54.9955 36.05 54.958 36.0105C54.9205 35.971 54.8996 35.9186 54.8996 35.8642C54.8996 35.8097 54.9205 35.7573 54.958 35.7178C54.9955 35.6783 55.0467 35.6547 55.1011 35.6518H63.3562C63.4001 35.6674 63.438 35.6962 63.4648 35.7342C63.4917 35.7722 63.5061 35.8176 63.5061 35.8642C63.5061 35.9107 63.4917 35.9561 63.4648 35.9941C63.438 36.0321 63.4001 36.0609 63.3562 36.0765H63.3551ZM44.3381 36.0765C44.2837 36.0736 44.2324 36.05 44.195 36.0105C44.1575 35.971 44.1366 35.9186 44.1366 35.8642C44.1366 35.8097 44.1575 35.7573 44.195 35.7178C44.2324 35.6783 44.2837 35.6547 44.3381 35.6518H52.4137C52.468 35.6547 52.5193 35.6783 52.5568 35.7178C52.5943 35.7573 52.6152 35.8097 52.6152 35.8642C52.6152 35.9186 52.5943 35.971 52.5568 36.0105C52.5193 36.05 52.468 36.0736 52.4137 36.0765H44.3381ZM50.8385 41.1165C50.7841 41.1136 50.7329 41.09 50.6954 41.0505C50.6579 41.011 50.637 40.9586 50.637 40.9042C50.637 40.8497 50.6579 40.7973 50.6954 40.7578C50.7329 40.7183 50.7841 40.6947 50.8385 40.6918H58.844C58.8984 40.6947 58.9496 40.7183 58.9871 40.7578C59.0246 40.7973 59.0455 40.8497 59.0455 40.9042C59.0455 40.9586 59.0246 41.011 58.9871 41.0505C58.9496 41.09 58.8984 41.1136 58.844 41.1165H50.8385Z" fill="#78B5FF"/>
<path d="M55.1004 36.0766H63.3556C63.41 36.0737 63.4612 36.0501 63.4987 36.0106C63.5362 35.9711 63.5571 35.9187 63.5571 35.8642C63.5571 35.8098 63.5362 35.7574 63.4987 35.7179C63.4612 35.6784 63.41 35.6548 63.3556 35.6519H55.1004C55.046 35.6548 54.9948 35.6784 54.9573 35.7179C54.9198 35.7574 54.8989 35.8098 54.8989 35.8642C54.8989 35.9187 54.9198 35.9711 54.9573 36.0106C54.9948 36.0501 55.046 36.0737 55.1004 36.0766Z" fill="#2755A0"/>
<path d="M52.4144 35.6519H44.3388C44.2844 35.6548 44.2332 35.6784 44.1957 35.7179C44.1582 35.7574 44.1373 35.8098 44.1373 35.8642C44.1373 35.9187 44.1582 35.9711 44.1957 36.0106C44.2332 36.0501 44.2844 36.0737 44.3388 36.0766H52.4144C52.4688 36.0737 52.52 36.0501 52.5575 36.0106C52.595 35.9711 52.6159 35.9187 52.6159 35.8642C52.6159 35.8098 52.595 35.7574 52.5575 35.7179C52.52 35.6784 52.4688 35.6548 52.4144 35.6519Z" fill="#2755A0"/>
<path d="M44.3388 54.7679C44.2826 54.7679 44.2287 54.7903 44.1889 54.83C44.1491 54.8698 44.1268 54.9237 44.1268 54.98C44.1268 55.0362 44.1491 55.0901 44.1889 55.1299C44.2287 55.1697 44.2826 55.192 44.3388 55.192H49.647C49.7033 55.192 49.7572 55.1697 49.797 55.1299C49.8367 55.0901 49.8591 55.0362 49.8591 54.98C49.8591 54.9237 49.8367 54.8698 49.797 54.83C49.7572 54.7903 49.7033 54.7679 49.647 54.7679H44.3388Z" fill="#2755A0"/>
<path d="M41.6409 36.0766C41.6952 36.0737 41.7465 36.0501 41.784 36.0106C41.8215 35.9711 41.8424 35.9187 41.8424 35.8642C41.8424 35.8098 41.8215 35.7574 41.784 35.7179C41.7465 35.6784 41.6952 35.6548 41.6409 35.6519H32.519C32.4982 35.7927 32.4837 35.9344 32.4756 36.0766H41.6409Z" fill="#2755A0"/>
<path d="M58.8449 40.6936H50.8394C50.785 40.6965 50.7337 40.7201 50.6962 40.7596C50.6588 40.7991 50.6378 40.8515 50.6378 40.906C50.6378 40.9604 50.6588 41.0128 50.6962 41.0523C50.7337 41.0918 50.785 41.1154 50.8394 41.1183H58.8449C58.8992 41.1154 58.9505 41.0918 58.988 41.0523C59.0255 41.0128 59.0464 40.9604 59.0464 40.906C59.0464 40.8515 59.0255 40.7991 58.988 40.7596C58.9505 40.7201 58.8992 40.6965 58.8449 40.6936Z" fill="#2755A0"/>
<path d="M48.2602 40.6936H43.2822C43.5531 40.803 43.8094 40.9457 44.0451 41.1183H48.2602C48.3108 41.1103 48.3569 41.0846 48.3902 41.0456C48.4234 41.0067 48.4417 40.9572 48.4417 40.906C48.4417 40.8547 48.4234 40.8052 48.3902 40.7663C48.3569 40.7273 48.3108 40.7016 48.2602 40.6936Z" fill="#2755A0"/>
<path d="M54.1571 46.3366C54.2115 46.3338 54.2627 46.3101 54.3002 46.2706C54.3377 46.2311 54.3586 46.1787 54.3586 46.1243C54.3586 46.0698 54.3377 46.0174 54.3002 45.9779C54.2627 45.9384 54.2115 45.9148 54.1571 45.912H43.3043C43.014 46.0819 42.7083 46.224 42.3913 46.3366H54.1571Z" fill="#2755A0"/>
<path d="M43.2824 40.6935C42.2333 40.2781 41.1227 40.1901 38.1943 39.7516C35.7844 39.3906 35.3499 39.346 34.5261 39.1386C33.2516 38.8194 32.3769 37.7188 32.476 36.0764C32.604 33.9567 34.0152 32.3074 35.6118 30.9119C38.0553 28.7765 42.129 26.2814 42.414 23.0593C42.4617 22.5783 42.3897 22.0929 42.2043 21.6464C42.019 21.1999 41.726 20.8063 41.3516 20.5005C40.3922 19.7358 39.1791 20.0712 38.1723 20.5694C34.3553 22.5776 30.7049 24.8876 27.2558 27.4771C27.0544 26.6354 26.6588 25.8524 26.1008 25.1908C25.5427 24.5292 24.8376 24.0074 24.0418 23.667C21.1342 22.3804 17.8356 23.5511 15.7211 25.8551C14.7653 24.1339 12.6155 23.499 10.7425 23.762C8.34826 24.0986 6.57905 25.9709 5.52354 28.0327C4.30511 30.6323 3.55031 33.4249 3.2932 36.2844C3.08407 38.5043 3.17039 38.7511 3.10956 53.5611C3.11031 53.5051 3.13289 53.4517 3.17249 53.4121C3.21209 53.3725 3.26559 53.3499 3.32159 53.3491C5.48763 53.3335 -3.57916 53.3491 26.3445 53.3491C27.264 52.747 28.2906 52.3273 29.3685 52.1129C30.3638 50.0129 31.081 48.3595 31.5873 47.1157C34.2115 47.2493 36.842 47.1852 39.4566 46.924C40.4545 46.8446 41.4396 46.6478 42.3914 46.3377C45.4264 45.3019 46.0625 41.793 43.2824 40.6935ZM22.7209 33.6786C22.619 33.9289 22.2088 33.8194 22.3114 33.5663C23.0858 31.6483 24.3104 29.9449 25.8817 28.5998C26.0885 28.426 26.3903 28.7226 26.1817 28.8999C24.6616 30.1922 23.4746 31.8312 22.7209 33.6786ZM11.67 31.3938C12.3602 29.8291 13.3167 28.3961 14.4971 27.1585C14.6859 26.9598 14.9854 27.2605 14.7971 27.4586C13.6439 28.6715 12.7099 30.0753 12.0367 31.6076C11.9272 31.8579 11.5611 31.6412 11.67 31.3938Z" fill="#FFD2D2"/>
<path d="M83.5808 89.3128C81.9937 87.5152 80.1569 85.9545 78.1266 84.6784C74.8176 82.7006 71.8521 82.6763 68.0895 83.1826C65.7062 83.5029 61.9285 84.212 61.7663 84.2833C61.7967 84.2773 61.828 84.2781 61.8581 84.2856C61.8882 84.2931 61.9162 84.3071 61.9403 84.3266C61.9644 84.3461 61.9839 84.3706 61.9975 84.3985C62.011 84.4263 62.0183 84.4568 62.0189 84.4878C62.0189 84.8023 62.1075 95.8486 62.0189 104.912C62.0183 104.955 62.0045 104.998 61.9794 105.033C61.9542 105.068 61.9189 105.095 61.8781 105.11C65.0671 104.36 68.2123 103.434 71.2994 102.337C75.3598 100.905 76.7368 100.271 78.1225 99.7416C78.7241 99.5174 79.29 99.2071 79.8025 98.8205C80.0052 98.6745 80.1763 98.489 80.3055 98.2753C80.4348 98.0615 80.5195 97.8238 80.5545 97.5765C80.5896 97.3291 80.5743 97.0773 80.5096 96.836C80.4449 96.5947 80.3321 96.369 80.1779 96.1725C80.9182 96.2015 81.6519 96.024 82.2971 95.6598C82.7278 95.3887 83.0438 94.9688 83.1849 94.4798C83.326 93.9909 83.2824 93.4671 83.0623 93.0083C83.4419 92.9264 83.7849 92.7239 84.0399 92.431C84.2948 92.1381 84.4482 91.7706 84.477 91.3833C84.4465 90.6056 84.1269 89.8673 83.5808 89.3128ZM72.1539 95.0909C74.1622 95.2311 76.1637 95.4435 78.1585 95.7281C78.2127 95.7431 78.2588 95.7791 78.2867 95.8281C78.3145 95.8771 78.3217 95.9351 78.3068 95.9894C78.2905 96.0428 78.2543 96.088 78.2057 96.1156C78.1571 96.1432 78.0997 96.1511 78.0455 96.1377C76.0897 95.8581 74.1259 95.6499 72.1539 95.5132C71.8828 95.4964 71.8816 95.0718 72.1539 95.0909ZM74.1514 88.7735C73.9075 88.6495 74.123 88.2834 74.3657 88.4068L81.4426 91.9945C81.6865 92.1179 81.4715 92.484 81.2282 92.3606L74.1514 88.7735Z" fill="#FFD2D2"/>
<path d="M62.0192 84.4877C62.0188 84.4599 62.013 84.4324 62.0019 84.4068C61.9909 84.3812 61.9749 84.358 61.9548 84.3387C61.9348 84.3193 61.9111 84.304 61.8852 84.2938C61.8593 84.2836 61.8316 84.2787 61.8037 84.2792C61.0767 84.2914 50.3102 87.0263 44.9649 88.1281C44.4713 85.9131 43.7665 83.7505 42.8603 81.67C41.9915 79.6183 40.8054 77.7159 39.3456 76.0327C34.4794 70.5009 26.4067 69.3747 19.1526 71.7093C20.4081 69.4353 21.65 67.1536 22.8781 64.8642C22.5492 64.0518 22.3886 63.1812 22.4058 62.305C22.423 61.4287 22.6178 60.5651 22.9783 59.7663C23.2225 59.2508 23.6031 58.812 24.079 58.4976C24.1341 58.3288 24.2031 58.1649 24.2853 58.0075C23.6845 57.3442 23.9898 56.1902 24.4156 55.3878C24.88 54.5579 25.5448 53.8575 26.3493 53.3504H3.3235C3.26745 53.351 3.21387 53.3735 3.17424 53.4132C3.1346 53.4528 3.11207 53.5064 3.11147 53.5624C3.07613 57.266 2.89655 106.63 2.89655 106.889C2.89715 106.945 2.91968 106.999 2.95931 107.038C2.99895 107.078 3.05253 107.101 3.10857 107.101H45.5917C45.6478 107.101 45.7015 107.078 45.7412 107.038C45.7809 106.999 45.8036 106.945 45.8043 106.889V106.613C51.201 106.892 56.6096 106.388 61.8616 105.116L61.8767 105.11C61.9175 105.095 61.9528 105.068 61.978 105.033C62.0031 104.998 62.0169 104.955 62.0175 104.912C62.0198 104.855 62.0215 84.7647 62.0192 84.4877ZM48.1517 104.276H51.0737C51.1281 104.279 51.1793 104.302 51.2168 104.342C51.2543 104.381 51.2752 104.434 51.2752 104.488C51.2752 104.543 51.2543 104.595 51.2168 104.635C51.1793 104.674 51.1281 104.698 51.0737 104.7H48.1517C48.0973 104.698 48.0461 104.674 48.0086 104.635C47.9711 104.595 47.9502 104.543 47.9502 104.488C47.9502 104.434 47.9711 104.381 48.0086 104.342C48.0461 104.302 48.0973 104.279 48.1517 104.276ZM44.7465 88.171C45.0136 88.1171 45.1271 88.5267 44.8624 88.5806C39.0953 89.7392 36.5075 90.0289 30.9937 88.0389C24.8663 85.8277 20.0505 83.317 14.408 81.2031C14.1543 81.1075 14.2649 80.6973 14.5239 80.7935C20.6287 83.0823 29.754 87.6502 34.7997 88.7335C38.1354 89.4455 41.3929 88.8482 44.7465 88.171ZM13.4597 59.4697C13.5176 59.7361 13.1121 59.8485 13.0501 59.5826C12.9052 58.9561 12.9607 58.2999 13.2087 57.7067C13.4567 57.1134 13.8847 56.6129 14.4324 56.2759C14.8869 56.0598 15.386 55.9537 15.8891 55.9661C16.3923 55.9784 16.8855 56.109 17.3289 56.3472C17.9741 56.7591 18.5085 57.3228 18.8855 57.9889C19.5981 59.0392 21.2103 61.9282 21.8249 63.0411C21.8534 63.0897 21.8613 63.1475 21.8471 63.2019C21.8329 63.2564 21.7976 63.3029 21.749 63.3313C21.725 63.3454 21.6984 63.3546 21.6708 63.3584C21.6432 63.3622 21.6152 63.3605 21.5882 63.3535C21.5338 63.3393 21.4872 63.304 21.4588 63.2555C19.9764 60.7772 18.4261 57.4287 17.1516 56.7376C16.7594 56.5114 16.3161 56.3886 15.8634 56.3806C15.4106 56.3726 14.9633 56.4797 14.5633 56.6919C14.1177 56.9868 13.7731 57.4111 13.5758 57.9077C13.3786 58.4043 13.338 58.9494 13.4597 59.4697ZM4.83897 56.0662C4.84181 56.0118 4.86542 55.9606 4.90493 55.9231C4.94443 55.8856 4.99682 55.8647 5.05129 55.8647C5.10576 55.8647 5.15815 55.8856 5.19765 55.9231C5.23716 55.9606 5.26077 56.0118 5.26361 56.0662V59.5102C5.26077 59.5646 5.23716 59.6158 5.19765 59.6533C5.15815 59.6908 5.10576 59.7117 5.05129 59.7117C4.99682 59.7117 4.94443 59.6908 4.90493 59.6533C4.86542 59.6158 4.84181 59.5646 4.83897 59.5102V56.0662ZM45.5963 106.599C35.8523 105.94 29.7476 102.676 21.8829 97.3513C15.9125 93.3095 13.9156 91.5762 9.81583 88.7636C9.59221 88.6101 9.80482 88.2423 10.0302 88.3975C14.6351 91.5565 15.58 92.5801 22.8526 97.4927C30.218 102.469 36.4832 105.597 45.5963 106.174C45.8605 106.192 45.8727 106.618 45.5963 106.599Z" fill="#C0C195"/>
<path d="M23.9495 59.1324C22.737 60.3611 22.6136 62.7589 23.1437 64.3624C23.7187 63.2849 24.2894 62.2051 24.8555 61.1229C24.5515 60.8921 24.3096 60.5894 24.1514 60.242C23.9933 59.8945 23.9239 59.5133 23.9495 59.1324Z" fill="#C0C195"/>
<path d="M14.4971 27.1586C13.3168 28.3962 12.3602 29.8292 11.6701 31.394C11.5612 31.6413 11.9273 31.8574 12.0368 31.6077C12.71 30.0756 13.644 28.672 14.7972 27.4593C14.9855 27.2606 14.686 26.9599 14.4971 27.1586Z" fill="#FF4848"/>
<path d="M25.8809 28.5999C24.3096 29.945 23.085 31.6484 22.3106 33.5663C22.208 33.8195 22.6182 33.929 22.7201 33.6787C23.4738 31.8313 24.6608 30.1923 26.1809 28.9C26.3895 28.7227 26.0877 28.4232 25.8809 28.5999Z" fill="#FF4848"/>
<path d="M34.9559 51.8029C34.955 51.7659 34.9447 51.7297 34.9257 51.6979C34.9068 51.6661 34.88 51.6397 34.8479 51.6213C34.8158 51.6028 34.7795 51.593 34.7425 51.5928C34.7055 51.5925 34.669 51.6018 34.6367 51.6198C33.4363 52.3202 32.2221 51.8034 30.2768 51.9674C28.0754 52.1545 25.4685 53.3948 24.4124 55.3853C23.9884 56.1836 23.6825 57.3422 24.2821 58.005C25.3955 55.8685 28.2028 55.6744 29.9894 57.0068C30.1297 57.1006 30.2574 57.212 30.3695 57.3382C31.5761 57.0414 32.6844 56.4352 33.5852 55.5794C34.0785 55.0902 34.4572 54.4979 34.6942 53.8449C34.9312 53.1919 35.0205 52.4945 34.9559 51.8029Z" fill="black"/>
<path d="M26.4365 58.5134C26.0026 58.4091 25.55 58.411 25.117 58.5188C24.684 58.6266 24.2833 58.8372 23.9489 59.1326C23.7711 61.2639 26.8165 62.7678 29.2959 61.582C28.8945 60.136 27.8929 58.8233 26.4365 58.5134Z" fill="#FFD2D2"/>
<path d="M31.0142 58.5427C30.4552 55.8246 25.2258 54.9921 24.0758 58.4963C24.2518 58.3793 24.442 58.2852 24.6418 58.2165C26.5808 57.5312 28.858 58.6221 29.6737 61.3564C30.1388 61.0606 30.5113 60.6398 30.7484 60.1422C30.9854 59.6446 31.0776 59.0902 31.0142 58.5427Z" fill="#FFD2D2"/>
<path d="M18.8853 57.9889C18.507 57.3232 17.9714 56.7603 17.3252 56.3495C16.8818 56.1113 16.3886 55.9808 15.8854 55.9684C15.3823 55.956 14.8832 56.0621 14.4287 56.2782C13.881 56.6152 13.453 57.1157 13.205 57.709C12.957 58.3023 12.9015 58.9584 13.0464 59.5849C13.1078 59.8508 13.5168 59.7384 13.456 59.472C13.3339 58.951 13.3745 58.4051 13.5722 57.9079C13.77 57.4107 14.1154 56.9861 14.5619 56.6913C14.9619 56.4791 15.4093 56.372 15.862 56.38C16.3147 56.388 16.758 56.5108 17.1503 56.737C18.4247 57.4287 19.9443 60.725 21.4574 63.2549C21.4859 63.3034 21.5324 63.3387 21.5868 63.3529C21.6138 63.36 21.6419 63.3616 21.6695 63.3578C21.6971 63.354 21.7236 63.3448 21.7477 63.3307C21.7717 63.3167 21.7927 63.298 21.8096 63.2758C21.8264 63.2536 21.8387 63.2283 21.8457 63.2014C21.8528 63.1744 21.8544 63.1463 21.8506 63.1187C21.8468 63.0911 21.8376 63.0646 21.8236 63.0405C21.213 61.9282 19.6002 59.0369 18.8853 57.9889Z" fill="black"/>
<path d="M39.5125 61.9971C38.6853 57.4461 33.9952 56.923 32.6628 59.765C32.2534 60.6368 32.0602 61.5944 32.0997 62.5567C32.0342 62.522 32.1912 62.533 29.8983 62.533C29.7436 60.7371 28.7281 58.8804 27.04 58.2461C26.2975 57.9299 25.462 57.9113 24.7062 58.194C23.9504 58.4768 23.3322 59.0392 22.9796 59.765C22.3062 61.2555 22.2205 62.9453 22.7398 64.4963C23.0183 65.3583 23.568 66.1073 24.3068 66.6316C26.7399 68.3661 29.9713 66.7284 29.9203 62.9571C32.1796 62.9571 32.0464 62.9738 32.1217 62.9188C32.1605 63.4547 32.2624 63.9842 32.4252 64.4963C33.0237 66.3802 34.9742 67.7039 36.8993 67.219C38.6708 66.7689 39.9916 64.6307 39.5125 61.9971ZM28.3162 66.1102C26.7022 67.6778 24.1098 66.7046 23.2762 64.7286C22.5416 62.9906 22.6737 59.8937 24.3103 58.8416C24.9517 58.4656 25.712 58.3471 26.4375 58.5103C29.3514 59.1336 30.6143 63.881 28.3162 66.1131V66.1102ZM38.0005 66.1102C36.3785 67.6848 33.7716 66.6971 32.9605 64.7286C32.4384 63.3596 32.3931 61.8546 32.8319 60.4567C33.0305 59.8048 33.4393 59.2368 33.9946 58.8416C34.6372 58.4688 35.3963 58.3505 36.1218 58.5103C39.0543 59.1475 40.2876 63.8921 38.0028 66.1131L38.0005 66.1102Z" fill="black"/>
<path d="M74.1517 88.7734L81.2285 92.3605C81.4718 92.4839 81.6868 92.1178 81.4429 91.9944L74.366 88.4067C74.1239 88.2833 73.9084 88.6494 74.1517 88.7734Z" fill="#FF4848"/>
<path d="M72.154 95.5155C74.1236 95.6529 76.0875 95.8611 78.0456 96.1399C78.0998 96.1533 78.1571 96.1454 78.2057 96.1178C78.2544 96.0903 78.2905 96.0451 78.3068 95.9916C78.3218 95.9373 78.3145 95.8793 78.2867 95.8303C78.2589 95.7813 78.2128 95.7454 78.1585 95.7304C76.1649 95.4453 74.1634 95.2329 72.154 95.0931C71.8817 95.0717 71.8829 95.4963 72.154 95.5155Z" fill="#FF4848"/>
<path d="M65.1083 68.8462L61.1586 72.2062C60.9506 72.3835 61.2519 72.6824 61.4593 72.5063L65.4084 69.1463C65.617 68.9696 65.3151 68.6701 65.1083 68.8462Z" fill="#2755A0"/>
<path d="M60.9144 71.8511C62.2661 70.7732 63.5918 69.665 64.8914 68.5265C65.097 68.3463 64.7958 68.0468 64.5913 68.2264C63.2905 69.3642 61.9649 70.4724 60.6143 71.5511C60.4005 71.7214 60.7029 72.0203 60.9144 71.8511Z" fill="#2755A0"/>
<path d="M48.1512 104.701H51.0733C51.1277 104.698 51.1789 104.675 51.2164 104.635C51.2539 104.596 51.2748 104.543 51.2748 104.489C51.2748 104.434 51.2539 104.382 51.2164 104.342C51.1789 104.303 51.1277 104.279 51.0733 104.276H48.1512C48.0968 104.279 48.0456 104.303 48.0081 104.342C47.9706 104.382 47.9497 104.434 47.9497 104.489C47.9497 104.543 47.9706 104.596 48.0081 104.635C48.0456 104.675 48.0968 104.698 48.1512 104.701Z" fill="#77751E"/>
<path d="M4.83917 56.066V59.51C4.84201 59.5644 4.86562 59.6157 4.90513 59.6532C4.94463 59.6907 4.99702 59.7116 5.05149 59.7116C5.10596 59.7116 5.15835 59.6907 5.19785 59.6532C5.23736 59.6157 5.26097 59.5644 5.26381 59.51V56.066C5.26097 56.0117 5.23736 55.9604 5.19785 55.9229C5.15835 55.8854 5.10596 55.8645 5.05149 55.8645C4.99702 55.8645 4.94463 55.8854 4.90513 55.9229C4.86562 55.9604 4.84201 56.0117 4.83917 56.066Z" fill="#77751E"/>
<path d="M29.7575 101.705C22.4518 97.7754 14.8577 91.7101 10.0297 88.3976C9.80433 88.2423 9.59172 88.6102 9.81534 88.7637C13.7118 91.4366 16.091 93.4289 21.8824 97.3514C29.805 102.718 35.9052 105.943 45.5959 106.599C45.8722 106.618 45.8606 106.194 45.5959 106.175C40.0533 105.86 34.6471 104.334 29.7575 101.705Z" fill="#77751E"/>
<path d="M34.7926 88.7289C29.7091 87.6369 20.7113 83.1096 14.5167 80.7889C14.2607 80.6927 14.15 81.1028 14.4009 81.1984C20.0694 83.3239 24.8591 85.8248 30.9865 88.0343C36.5085 90.0277 39.0969 89.7328 44.8552 88.5759C45.1228 88.5221 45.0093 88.1125 44.7393 88.1664C41.3695 88.8529 38.1184 89.4455 34.7926 88.7289Z" fill="#77751E"/>
<path d="M100.224 106.683V88.7596C100.249 87.8113 100.643 86.9101 101.321 86.2469C101.999 85.5837 102.909 85.2107 103.858 85.2069C104.807 85.203 105.719 85.5687 106.403 86.2263C107.087 86.884 107.487 87.782 107.52 88.7301C107.52 88.927 107.517 89.1234 107.52 89.3198C107.523 89.3742 107.547 89.4254 107.586 89.4629C107.626 89.5004 107.678 89.5213 107.732 89.5213C107.787 89.5213 107.839 89.5004 107.879 89.4629C107.918 89.4254 107.942 89.3742 107.945 89.3198C107.983 88.6847 107.909 88.0479 107.727 87.4382C107.414 86.5238 106.787 85.7502 105.957 85.2558C105.126 84.7614 104.147 84.5784 103.194 84.7394C102.241 84.9004 101.377 85.3949 100.755 86.1347C100.133 86.8744 99.7945 87.8112 99.7997 88.7776V106.683C99.8025 106.738 99.8261 106.789 99.8656 106.827C99.9051 106.864 99.9575 106.885 100.012 106.885C100.066 106.885 100.119 106.864 100.158 106.827C100.198 106.789 100.221 106.738 100.224 106.683Z" fill="#FFC431"/>
<path d="M107.246 84.1157C106.368 83.5528 105.364 83.2163 104.324 83.1361C103.284 83.0559 102.24 83.2347 101.286 83.6563C100.346 84.102 99.5516 84.806 98.9966 85.6862C98.4415 86.5663 98.1483 87.5863 98.1513 88.6268C98.1478 89.253 98.1374 104.113 98.1513 106.346C98.16 107.255 97.8747 108.143 97.3378 108.878C96.801 109.612 96.0413 110.153 95.1719 110.421C94.1952 110.661 92.2487 110.537 55.8854 110.589C55.8574 110.59 55.8299 110.596 55.8043 110.607C55.7788 110.619 55.7558 110.635 55.7367 110.656C55.7176 110.676 55.7028 110.7 55.6931 110.726C55.6834 110.753 55.6791 110.781 55.6803 110.809C55.6822 110.862 55.7044 110.913 55.7425 110.952C55.7805 110.99 55.8316 111.012 55.8854 111.014H93.8725C94.4742 111.03 95.0731 110.927 95.635 110.711C96.1969 110.496 96.7109 110.172 97.1475 109.757C97.5841 109.343 97.9348 108.847 98.1796 108.297C98.4244 107.747 98.5585 107.155 98.5742 106.553V89.6696C98.5205 88.8246 98.5926 87.9763 98.788 87.1525C100.476 81.7313 109.547 82.3876 109.166 89.3156C109.169 89.37 109.192 89.4212 109.232 89.4587C109.271 89.4962 109.324 89.5171 109.378 89.5171C109.433 89.5171 109.485 89.4962 109.524 89.4587C109.564 89.4212 109.588 89.37 109.59 89.3156C109.688 87.16 109.002 85.3479 107.246 84.1157Z" fill="#FFC431"/>
<path d="M109.147 83.6449C108.351 82.8581 107.389 82.2599 106.331 81.8946C105.273 81.5292 104.146 81.4059 103.034 81.5338C101.923 81.6616 100.854 82.0374 99.9062 82.6334C98.9588 83.2294 98.1573 84.0303 97.5607 84.9773C96.7757 86.2534 96.3777 87.7299 96.4148 89.2277C96.4148 89.2277 96.4102 105.965 96.4148 106.254C96.424 106.576 96.362 106.896 96.2332 107.192C96.1045 107.488 95.9121 107.751 95.6698 107.964C95.1225 108.363 94.4436 108.539 93.7715 108.454H55.9465C55.8921 108.457 55.8409 108.481 55.8034 108.52C55.7659 108.56 55.745 108.612 55.745 108.667C55.745 108.721 55.7659 108.774 55.8034 108.813C55.8409 108.853 55.8921 108.876 55.9465 108.879C55.9465 108.879 93.75 108.874 94.214 108.879C94.8919 108.893 95.5478 108.638 96.0389 108.171C96.5299 107.703 96.8164 107.061 96.836 106.383V88.9745C96.8348 88.03 97.0233 87.0949 97.3902 86.2246C97.7571 85.3543 98.295 84.5666 98.972 83.908C99.649 83.2494 100.451 82.7334 101.331 82.3906C102.211 82.0478 103.151 81.8851 104.095 81.9123C105.04 81.9394 105.969 82.1558 106.827 82.5486C107.686 82.9415 108.458 83.5027 109.096 84.1991C109.734 84.8955 110.225 85.7129 110.542 86.6029C110.858 87.4928 110.992 88.4372 110.937 89.38C110.94 89.4344 110.963 89.4857 111.003 89.5232C111.042 89.5606 111.095 89.5815 111.149 89.5815C111.204 89.5815 111.256 89.5606 111.296 89.5232C111.335 89.4857 111.359 89.4344 111.362 89.38C111.417 88.322 111.248 87.2643 110.867 86.2759C110.485 85.2876 109.899 84.391 109.147 83.6449Z" fill="#FFC431"/>
<path d="M111.291 83.5071C110.176 81.9294 108.587 80.7481 106.754 80.1348C104.922 79.5216 102.942 79.5081 101.102 80.0966C99.2613 80.685 97.6563 81.8446 96.5197 83.4071C95.3831 84.9696 94.774 86.8536 94.7808 88.7858V90.9374C94.7837 90.9917 94.8073 91.043 94.8468 91.0805C94.8863 91.118 94.9387 91.1389 94.9931 91.1389C95.0476 91.1389 95.1 91.118 95.1395 91.0805C95.179 91.043 95.2026 90.9917 95.2055 90.9374C95.1305 89.523 95.2123 88.1047 95.4493 86.7084C95.9509 84.6394 97.1964 82.8274 98.9483 81.6178C100.7 80.4083 102.836 79.8859 104.948 80.1502C107.061 80.4145 109.002 81.447 110.402 83.0509C111.802 84.6548 112.563 86.7178 112.539 88.8466V89.2869C112.542 89.3413 112.565 89.3925 112.605 89.43C112.644 89.4675 112.697 89.4884 112.751 89.4884C112.806 89.4884 112.858 89.4675 112.898 89.43C112.937 89.3925 112.961 89.3413 112.964 89.2869C113.073 87.2269 112.484 85.1904 111.291 83.5071Z" fill="#FFC431"/>
<path d="M87.5737 65.3409C87.0176 64.326 82.6316 56.85 82.4179 56.4873C82.3987 56.4559 82.3717 56.43 82.3396 56.412C82.3075 56.394 82.2713 56.3846 82.2345 56.3846C82.1977 56.3846 82.1615 56.394 82.1294 56.412C82.0973 56.43 82.0704 56.4559 82.0512 56.4873C80.3264 59.4349 78.6077 62.3861 76.8953 65.3409C76.8772 65.3733 76.8677 65.4098 76.8679 65.4468C76.8681 65.4839 76.8779 65.5203 76.8963 65.5525C76.9147 65.5846 76.9412 65.6115 76.9731 65.6303C77.005 65.6492 77.0413 65.6595 77.0784 65.6601H81.1289V63.8932C81.1318 63.8389 81.1554 63.7876 81.1949 63.7501C81.2344 63.7126 81.2868 63.6917 81.3412 63.6917C81.3957 63.6917 81.4481 63.7126 81.4876 63.7501C81.5271 63.7876 81.5507 63.8389 81.5535 63.8932V65.6601H87.3941C87.4303 65.6575 87.4653 65.646 87.4959 65.6266C87.5266 65.6071 87.5519 65.5804 87.5697 65.5488C87.5875 65.5172 87.5972 65.4816 87.5979 65.4454C87.5986 65.4091 87.5903 65.3732 87.5737 65.3409Z" fill="#FFC431"/>
<path d="M76.9837 49.0235H73.2732C73.2172 49.0241 73.1636 49.0467 73.124 49.0863C73.0843 49.1259 73.0618 49.1795 73.0612 49.2356V52.9489C73.0616 53.0051 73.0841 53.0588 73.1238 53.0986C73.1634 53.1383 73.2171 53.1609 73.2732 53.1615C75.8031 53.1795 76.6431 53.1853 76.9385 53.1656C77.0764 53.1569 77.1876 53.1413 77.2033 52.9032C77.2224 52.6187 77.2143 51.7978 77.1963 49.2385C77.1965 49.1818 77.1742 49.1274 77.1343 49.0871C77.0945 49.0469 77.0403 49.024 76.9837 49.0235Z" fill="#D5E04F"/>
<path d="M91.7226 45.1687C90.864 44.854 89.929 44.8122 89.0457 45.049C88.1624 45.2859 87.3738 45.7898 86.7878 46.492C86.2018 47.1941 85.847 48.0601 85.772 48.9716C85.697 49.883 85.9053 50.7954 86.3686 51.5839C86.8319 52.3724 87.5275 52.9985 88.3602 53.3767C89.1929 53.7548 90.122 53.8664 91.0206 53.6963C91.9192 53.5262 92.7433 53.0827 93.3801 52.4264C94.017 51.77 94.4356 50.933 94.5786 50.0297C94.7406 49.0139 94.5442 47.9735 94.0231 47.0866C93.5021 46.1997 92.6888 45.5217 91.7226 45.1687Z" fill="#FFF0B3"/>
<path d="M86.9705 78.716C88.0938 78.234 89.3752 78.7832 90.4991 78.2699C90.7332 78.1654 90.9416 78.011 91.1097 77.8174C91.2778 77.6239 91.4016 77.3959 91.4723 77.1495C91.5173 76.8867 91.4882 76.6165 91.3883 76.3692C91.2885 76.1219 91.1218 75.9073 90.9069 75.7493C89.4424 74.644 86.7591 75.9081 86.4428 74.4783C86.3892 74.2447 86.3937 74.0016 86.456 73.7702C86.5184 73.5388 86.6365 73.3262 86.8002 73.1511C87.1949 72.8094 87.6943 72.6124 88.216 72.5927C89.1359 72.5524 90.0575 72.6037 90.9672 72.7456C91.2377 72.7792 91.2354 72.3546 90.9672 72.3216C90.3342 72.239 89.6982 72.181 89.0607 72.1478C88.514 72.1138 87.9654 72.1664 87.4351 72.3036C86.9316 72.445 86.4983 72.7677 86.2186 73.2096C85.9874 73.6469 85.9255 74.1541 86.0448 74.6342C86.3466 75.8646 87.9635 75.6532 88.9182 75.6491C89.4576 75.6134 89.9967 75.723 90.4794 75.9666C90.7141 76.0763 90.8976 76.2719 90.9921 76.5131C91.0865 76.7543 91.0847 77.0226 90.9869 77.2625C90.3966 78.431 88.7896 78.0347 87.7509 78.1048C87.2126 78.1339 86.6971 78.3313 86.2771 78.6691C86.1159 78.8258 85.9872 79.0127 85.8984 79.2192C85.8095 79.4257 85.7622 79.6477 85.7592 79.8725C85.7562 80.0973 85.7975 80.3205 85.8808 80.5293C85.9641 80.7381 86.0877 80.9284 86.2446 81.0894C86.7021 81.4876 87.291 81.702 87.8974 81.6913C88.4044 81.6876 88.9112 81.7135 89.4152 81.7689C89.858 81.8181 90.2688 82.0235 90.5738 82.3483C91.0952 83.0875 90.4493 84.0173 89.4807 84.1291C88.3168 84.2735 87.1405 84.2875 85.9735 84.1708C85.7024 84.1418 85.7042 84.567 85.9735 84.5954C87.3106 84.7381 88.6613 84.6895 89.9847 84.4512C90.9365 84.1285 91.5384 83.0278 90.9573 82.1577C90.6804 81.7985 90.29 81.5436 89.8497 81.4347C89.3736 81.3125 88.8821 81.261 88.391 81.2817C87.862 81.3136 87.3329 81.2219 86.8454 81.0141C86.6338 80.8989 86.4593 80.7261 86.3419 80.5157C86.2246 80.3054 86.1692 80.0661 86.1823 79.8255C86.1954 79.585 86.2764 79.3531 86.4159 79.1567C86.5554 78.9604 86.7477 78.8075 86.9705 78.716Z" fill="#D5E04F"/>
<path d="M75.1422 35.6368C75.1241 35.6692 75.1147 35.7058 75.1149 35.7429C75.1151 35.7801 75.1249 35.8165 75.1434 35.8487C75.1619 35.8809 75.1884 35.9078 75.2204 35.9267C75.2524 35.9456 75.2887 35.9559 75.3258 35.9566H80.2703C80.2991 35.9551 80.3274 35.9479 80.3534 35.9354C80.3795 35.923 80.4028 35.9054 80.422 35.8839C80.4413 35.8623 80.456 35.8372 80.4655 35.8099C80.4749 35.7826 80.4789 35.7537 80.4771 35.7249C80.469 35.5615 78.026 31.4681 77.9814 31.3928C77.9623 31.3612 77.9354 31.3352 77.9033 31.3171C77.8712 31.299 77.8349 31.2895 77.798 31.2895C77.7612 31.2895 77.7249 31.299 77.6928 31.3171C77.6607 31.3352 77.6338 31.3612 77.6147 31.3928C76.8819 32.6267 75.2436 35.4607 75.1422 35.6368Z" fill="#C0C195"/>
<path d="M85.2666 17.4475C84.9839 16.5485 84.4221 15.763 83.6627 15.205C82.9033 14.647 81.9858 14.3454 81.0434 14.3441H80.0099C79.9539 14.3449 79.9003 14.3675 79.8606 14.407C79.8209 14.4466 79.7982 14.5001 79.7973 14.5562V18.3061C79.7978 18.3623 79.8203 18.4161 79.8601 18.4559C79.8999 18.4957 79.9537 18.5182 80.0099 18.5187C80.1802 18.5145 80.3495 18.5452 80.5074 18.6088C80.6654 18.6725 80.8087 18.7677 80.9286 18.8886C81.0484 19.0096 81.1423 19.1537 81.2045 19.3122C81.2667 19.4708 81.2959 19.6403 81.2902 19.8105V22.0582C81.291 22.1142 81.3135 22.1677 81.3531 22.2073C81.3927 22.2469 81.4462 22.2695 81.5022 22.2703H85.2544C85.3105 22.2697 85.3642 22.2472 85.4039 22.2075C85.4436 22.1679 85.4663 22.1143 85.467 22.0582C85.492 18.5708 85.5145 18.284 85.2666 17.4475Z" fill="#CCEAFF"/>
<path d="M74.3696 21.6823C73.9687 20.9506 70.7975 15.5457 70.6417 15.2833C70.6226 15.2517 70.5957 15.2256 70.5636 15.2075C70.5315 15.1894 70.4952 15.1799 70.4583 15.1799C70.4215 15.1799 70.3852 15.1894 70.3531 15.2075C70.321 15.2256 70.2941 15.2517 70.275 15.2833C69.0283 17.4139 67.7857 19.5469 66.5471 21.6823C66.529 21.7146 66.5195 21.7511 66.5197 21.7882C66.5199 21.8253 66.5297 21.8617 66.5481 21.8938C66.5666 21.926 66.593 21.9528 66.625 21.9717C66.6569 21.9906 66.6931 22.0008 66.7302 22.0015H74.1865C74.223 21.9995 74.2584 21.9883 74.2895 21.9691C74.3206 21.9499 74.3464 21.9232 74.3645 21.8915C74.3827 21.8598 74.3927 21.8241 74.3936 21.7876C74.3945 21.751 74.3862 21.7149 74.3696 21.6823Z" fill="#78B5FF"/>
<path d="M67.1883 12.6724C66.8222 11.7715 67.2509 10.7549 66.8361 9.8575C66.7506 9.66906 66.626 9.50096 66.4706 9.36433C66.3152 9.2277 66.1325 9.12567 65.9347 9.065C65.7247 9.02243 65.5071 9.03814 65.3054 9.11044C65.1037 9.18274 64.9257 9.30887 64.7906 9.47516C63.9506 10.4901 64.6127 11.9807 64.1394 12.8554C64.0241 12.9568 63.8878 13.0312 63.7402 13.0734C63.5926 13.1156 63.4375 13.1245 63.286 13.0995C63.1346 13.0744 62.9906 13.016 62.8645 12.9286C62.7384 12.8411 62.6333 12.7267 62.5567 12.5936C62.3341 12.167 62.2365 11.6863 62.2752 11.2067C62.2926 10.6374 62.3401 10.0695 62.4177 9.50528C62.4542 9.23532 62.0267 9.23706 61.9937 9.50528C61.9299 10.022 61.8778 10.5411 61.8529 11.0613C61.8129 11.9801 61.9577 12.8572 62.7271 13.3467C63.0781 13.531 63.4833 13.5842 63.87 13.4967C64.8549 13.2789 64.7564 12.0595 64.7442 11.289C64.7056 10.8473 64.776 10.4029 64.9493 9.9948C65.0219 9.79993 65.168 9.64125 65.3561 9.55268C65.5443 9.46412 65.7597 9.45272 65.9561 9.52092C66.8998 9.95772 66.5644 11.3035 66.6276 12.111C66.7168 13.2505 67.5208 13.9573 68.5317 13.6485C68.7634 13.5805 68.9723 13.4512 69.1365 13.2743C70.0252 12.1562 69.1696 10.7213 70.0432 9.90095C70.1226 9.8357 70.2141 9.78679 70.3125 9.75703C70.4109 9.72727 70.5142 9.71724 70.6165 9.72753C70.7188 9.73781 70.818 9.7682 70.9085 9.81695C70.999 9.8657 71.079 9.93185 71.1439 10.0116C71.3561 10.2659 71.4757 10.5847 71.4833 10.9159C71.578 11.7774 71.5792 12.6466 71.4868 13.5083C71.4578 13.78 71.8831 13.7777 71.9114 13.5083C72.0277 12.4267 71.9861 11.3339 71.7881 10.2642C71.7351 10.0767 71.6409 9.90352 71.5124 9.75714C71.3839 9.61076 71.2243 9.49492 71.0453 9.41809C70.8663 9.34125 70.6725 9.30536 70.4778 9.31303C70.2832 9.3207 70.0927 9.37173 69.9204 9.46241C69.6237 9.67745 69.4094 9.98726 69.3127 10.3406C69.0103 11.4413 69.3561 11.8214 68.9796 12.7593C68.8931 12.9275 68.76 13.0672 68.5962 13.1618C68.4324 13.2564 68.2449 13.3019 68.056 13.2927C67.867 13.2835 67.6848 13.2202 67.5309 13.1101C67.377 13.0001 67.2581 12.8482 67.1883 12.6724Z" fill="#2755A0"/>
<path d="M81.1258 74.3289C81.1287 74.3833 81.1523 74.4346 81.1918 74.4721C81.2313 74.5096 81.2837 74.5305 81.3381 74.5305C81.3926 74.5305 81.445 74.5096 81.4845 74.4721C81.524 74.4346 81.5476 74.3833 81.5505 74.3289V63.8933C81.5476 63.8389 81.524 63.7876 81.4845 63.7501C81.445 63.7126 81.3926 63.6917 81.3381 63.6917C81.2837 63.6917 81.2313 63.7126 81.1918 63.7501C81.1523 63.7876 81.1287 63.8389 81.1258 63.8933V74.3289Z" fill="black"/>
<path d="M78.5169 44.378V53.5612C78.5169 53.6174 78.5393 53.6714 78.579 53.7111C78.6188 53.7509 78.6727 53.7732 78.729 53.7732C78.7852 53.7732 78.8391 53.7509 78.8789 53.7111C78.9187 53.6714 78.941 53.6174 78.941 53.5612V44.378C78.941 44.3218 78.9187 44.2678 78.8789 44.2281C78.8391 44.1883 78.7852 44.166 78.729 44.166C78.6727 44.166 78.6188 44.1883 78.579 44.2281C78.5393 44.2678 78.5169 44.3218 78.5169 44.378Z" fill="black"/>
<path d="M81.8569 31.0198V44.1702C81.8597 44.2245 81.8833 44.2758 81.9229 44.3133C81.9624 44.3508 82.0148 44.3717 82.0692 44.3717C82.1237 44.3717 82.1761 44.3508 82.2156 44.3133C82.2551 44.2758 82.2787 44.2245 82.2815 44.1702V31.0198C82.2787 30.9654 82.2551 30.9142 82.2156 30.8767C82.1761 30.8392 82.1237 30.8183 82.0692 30.8183C82.0148 30.8183 81.9624 30.8392 81.9229 30.8767C81.8833 30.9142 81.8597 30.9654 81.8569 31.0198Z" fill="black"/>
<path d="M84.1515 27.7849V37.8035C84.1543 37.8579 84.1779 37.9091 84.2175 37.9466C84.257 37.9841 84.3093 38.005 84.3638 38.005C84.4183 38.005 84.4707 37.9841 84.5102 37.9466C84.5497 37.9091 84.5733 37.8579 84.5761 37.8035V27.7849C84.5733 27.7305 84.5497 27.6793 84.5102 27.6418C84.4707 27.6043 84.4183 27.5834 84.3638 27.5834C84.3093 27.5834 84.257 27.6043 84.2175 27.6418C84.1779 27.6793 84.1543 27.7305 84.1515 27.7849Z" fill="black"/>
<path d="M53.6591 83.9567C53.4054 84.0517 53.5154 84.4625 53.7721 84.3657C56.663 83.2805 59.6735 82.5451 62.7392 82.1754C63.0074 82.1429 63.0103 81.7183 62.7392 81.7507C59.6349 82.1188 56.5862 82.8594 53.6591 83.9567Z" fill="black"/>
<path d="M62.2376 79.8868C59.0961 80.3915 56.0218 81.2503 53.0735 82.4468C52.8233 82.5482 52.9328 82.9589 53.1894 82.8564C56.1377 81.6599 59.212 80.8011 62.3535 80.2964C62.6194 80.2541 62.507 79.8451 62.2376 79.8868Z" fill="black"/>
<path d="M5.16621 16.2906C6.1661 17.7389 8.58414 21.2483 8.58414 21.2483C8.73823 21.4719 9.10552 21.2593 8.95026 21.034L5.53233 16.0762C5.37881 15.8526 5.01095 16.0647 5.16621 16.2906Z" fill="black"/>
<path d="M11.3645 20.858C11.4225 21.125 11.8332 21.0121 11.7735 20.7456L10.1515 13.4277C10.0935 13.1607 9.68279 13.2736 9.74188 13.5436C10.0223 14.8216 11.0216 19.317 11.3645 20.858Z" fill="black"/>
<path d="M94.9489 91.6805H84.4292C84.6326 90.8486 84.1639 90.0121 83.5811 89.3129C81.7453 87.1996 79.54 85.4384 77.0731 84.1153C73.7751 79.4107 66.5992 69.9691 66.2696 69.5445C66.2443 69.5084 66.2059 69.4836 66.1627 69.4754C66.1194 69.4672 66.0746 69.4762 66.0379 69.5005C65.9162 69.5839 61.9676 72.8489 61.9016 72.9039C61.863 72.9443 61.8414 72.9981 61.8414 73.0539C61.8414 73.1098 61.863 73.1636 61.9016 73.204C64.6104 76.1301 64.2623 75.9754 70.8809 82.919C64.3978 83.1785 53.2629 86.4186 44.9672 88.1282C44.4816 85.9111 43.7767 83.7477 42.8631 81.67C41.9941 79.6184 40.8081 77.7161 39.3485 76.0327C34.3629 70.4418 26.2601 69.4228 19.1554 71.7094C20.411 69.4354 21.6528 67.1537 22.881 64.8642C23.7447 66.9104 26.1251 67.9346 27.9442 66.9208C29.3519 66.1323 29.9428 64.5103 29.9219 62.9577C32.1812 62.9577 32.048 62.9739 32.1233 62.9189C32.1619 63.4549 32.2638 63.9844 32.4269 64.4964C32.6961 65.428 33.3053 66.2247 34.1337 66.7289C34.9622 67.2331 35.9496 67.408 36.9009 67.2191C39.0258 66.6433 39.9185 64.2067 39.5165 61.9995C38.6927 57.4659 34.0008 56.9126 32.6667 59.7669C32.2572 60.6386 32.0641 61.5963 32.1036 62.5586C32.0387 62.5244 32.1951 62.5348 29.9022 62.5348C29.8708 62.1357 29.796 61.7412 29.6792 61.3582C31.0597 60.4447 31.5758 58.5526 30.3744 57.3413C32.2282 56.802 33.7987 55.8867 34.59 54.1093C34.59 54.1093 45.5494 54.1128 46.5817 54.1093C48.0125 54.108 49.4248 53.7866 50.7152 53.1687C52.0057 52.5509 53.1416 51.6522 54.0398 50.5385L66.5853 36.0783H67.5319C67.5863 36.0755 67.6375 36.0518 67.675 36.0123C67.7125 35.9728 67.7334 35.9205 67.7334 35.866C67.7334 35.8115 67.7125 35.7591 67.675 35.7196C67.6375 35.6801 67.5863 35.6565 67.5319 35.6537H66.9526C68.4229 33.9592 68.3429 34.0808 68.3794 33.9157C68.3893 33.7361 68.3893 33.556 68.3794 33.3764C68.3794 32.1384 68.3881 31.5603 68.3794 31.277C68.3684 30.8906 68.2937 30.9294 68.073 30.9236C67.058 30.8958 61.8344 30.9126 35.6165 30.9126C36.129 30.4685 36.6521 30.0368 37.1853 29.6178H68.3238C68.3799 29.6169 68.4334 29.5942 68.473 29.5545C68.5125 29.5148 68.5351 29.4613 68.5359 29.4052V22.0016H74.1905C74.2194 22.0002 74.2477 21.993 74.2738 21.9805C74.2998 21.968 74.3232 21.9505 74.3425 21.929C74.3617 21.9074 74.3766 21.8823 74.3861 21.855C74.3956 21.8277 74.3996 21.7988 74.3979 21.7699C74.3933 21.6911 74.6383 22.1384 70.6457 15.2816C70.6266 15.2501 70.5997 15.224 70.5676 15.2059C70.5355 15.1878 70.4992 15.1783 70.4623 15.1783C70.4255 15.1783 70.3892 15.1878 70.3571 15.2059C70.325 15.224 70.2981 15.2501 70.279 15.2816L68.5359 18.2738V13.6486C68.7684 13.5823 68.978 13.4528 69.1412 13.2743C70.0293 12.1563 69.1737 10.7213 70.0467 9.90159C70.1261 9.83631 70.2176 9.78736 70.316 9.75755C70.4143 9.72775 70.5176 9.71767 70.6199 9.7279C70.7222 9.73812 70.8214 9.76846 70.9119 9.81715C71.0025 9.86585 71.0825 9.93195 71.1474 10.0117C71.363 10.2643 71.4831 10.5845 71.4869 10.9165C71.5819 11.7778 71.583 12.6469 71.4903 13.5084C71.4614 13.7801 71.886 13.7778 71.915 13.5084C72.031 12.4267 71.9894 11.334 71.7916 10.2642C71.7386 10.0768 71.6444 9.90358 71.5159 9.7572C71.3874 9.61082 71.2278 9.49498 71.0488 9.41815C70.8699 9.34132 70.676 9.30542 70.4813 9.31309C70.2867 9.32076 70.0963 9.37179 69.9239 9.46247C69.6269 9.67718 69.4124 9.98712 69.3162 10.3407C69.0091 11.4588 69.3677 11.8 68.9831 12.7593C68.8863 12.9481 68.7299 13.0996 68.5382 13.1903V11.9471C68.5904 11.0128 68.4754 10.0766 68.1987 9.18266C67.8618 8.17834 67.2788 7.27435 66.5029 6.55317C65.7269 5.83199 64.7828 5.31656 63.7565 5.05392C63.078 4.91471 62.3869 4.8458 61.6942 4.84827C58.7183 4.78396 25.3807 4.77064 24.2968 4.87607C22.7092 5.02372 21.2338 5.75811 20.1588 6.93569C19.0839 8.11328 18.4867 9.64941 18.484 11.2439V23.827C17.4395 24.3152 16.5014 25.0041 15.723 25.8546C14.7672 24.1335 12.6173 23.4986 10.7444 23.7616C8.35014 24.0982 6.59541 25.978 5.52543 28.0323C4.30671 30.6318 3.5519 33.4244 3.29508 36.284C3.08943 38.6643 2.90173 105.087 2.89651 106.889C2.89726 106.945 2.91984 106.999 2.95945 107.038C2.99905 107.078 3.05254 107.1 3.10854 107.101H45.5917C45.6477 107.1 45.7013 107.078 45.741 107.038C45.7807 106.999 45.8034 106.945 45.8043 106.889V106.613C49.135 106.806 52.4765 106.677 55.7823 106.228C55.7823 106.459 55.7933 106.714 55.7933 106.714C55.7942 106.77 55.8169 106.823 55.8566 106.863C55.8963 106.903 55.9498 106.925 56.0059 106.926H94.9489C95.0049 106.925 95.0583 106.902 95.0979 106.863C95.1374 106.823 95.1601 106.77 95.1609 106.714V91.8931C95.1601 91.8371 95.1374 91.7836 95.0979 91.7439C95.0583 91.7043 95.0049 91.6815 94.9489 91.6805ZM32.8312 60.4597C33.0264 59.8061 33.436 59.2371 33.9939 58.8446C34.6354 58.4688 35.3957 58.3504 36.1211 58.5132C39.0229 59.1157 40.3066 63.8811 38.0004 66.1132C36.4142 67.66 33.8033 66.7296 32.9604 64.7316C32.4323 63.3639 32.3867 61.8569 32.8312 60.4597ZM62.3535 73.0771L66.0854 69.9963C70.1631 75.578 73.1136 79.3186 76.3148 83.7839C74.7717 83.1552 73.1141 82.8567 71.4486 82.9074C68.4461 79.7623 65.2691 76.3786 62.3535 73.0771ZM62.0505 85.3092C62.0505 85.0961 62.0684 84.8701 62.0592 84.6535C63.8156 84.2943 65.5802 83.971 67.3541 83.7115C69.1264 83.3836 70.9314 83.2669 72.7312 83.3639C76.7539 83.6165 80.1139 86.2396 82.8952 89.1796C83.4664 89.785 84.0753 90.5045 84.0538 91.381C84.037 92.0217 83.3395 92.7574 82.6589 92.5622C82.4665 92.5072 82.2829 92.7783 82.4526 92.9167C83.0678 93.4196 82.919 94.4629 82.4324 95.0023C81.7221 95.7924 80.4557 95.7751 79.4854 95.7304C79.4351 95.7322 79.3871 95.7517 79.3498 95.7854C79.3124 95.8191 79.2882 95.8649 79.2813 95.9147C79.2743 95.9645 79.2852 96.0152 79.312 96.0577C79.3387 96.1003 79.3796 96.1321 79.4275 96.1476C79.6478 96.2372 79.8355 96.3919 79.9658 96.5909C80.0961 96.7898 80.1627 97.0238 80.1568 97.2616C80.1472 97.5325 80.0718 97.7971 79.9371 98.0324C79.8023 98.2676 79.6123 98.4666 79.3834 98.6119C78.8605 98.9555 78.2992 99.2368 77.711 99.4502C74.3654 100.709 69.2675 102.92 62.0505 104.633V85.3092ZM83.2579 93.6293C83.423 93.8674 85.0056 96.1534 85.1539 96.3741C85.2379 96.4992 85.2947 96.6342 85.1539 96.7466C85.0224 96.8514 84.9054 96.7802 84.8064 96.6782C84.6158 96.4847 83.0342 94.8511 83.0342 94.8511C83.2328 94.4766 83.3109 94.0499 83.2579 93.6293ZM23.9492 59.132C23.9267 59.4386 23.9674 59.7466 24.069 60.0368C24.1705 60.327 24.3307 60.5932 24.5395 60.8189C24.0255 61.8026 23.5066 62.7837 22.9829 63.7624C22.6747 62.2278 22.8375 60.2593 23.9492 59.132ZM24.4266 58.7797C26.0927 57.9154 28.2651 58.7102 29.1642 61.1717C26.9674 62.266 23.8618 60.9469 24.4266 58.7797ZM28.3161 66.1132C26.7357 67.6519 23.9405 66.7968 23.1434 64.3625C23.7185 63.285 24.2891 62.2052 24.8553 61.123C25.4801 61.6041 26.2265 61.9017 27.0109 61.9828C27.7954 62.0638 28.5868 61.925 29.2968 61.5819C29.7267 63.1304 29.5164 64.9511 28.3161 66.1132ZM30.4931 58.2717C30.6403 58.761 30.6264 59.2846 30.4535 59.7654C30.2805 60.2463 29.9577 60.6588 29.5326 60.9423C28.5936 58.4739 26.4681 57.5869 24.6415 58.2195C24.9441 57.6418 25.4242 57.1764 26.011 56.8918C27.6197 56.218 29.8026 56.7817 30.4931 58.2717ZM33.5739 54.9621C32.6339 56.0162 31.3754 56.7347 29.9897 57.0082C28.2135 55.7001 25.6848 55.9382 24.5164 57.6089C24.3944 57.3638 24.3509 57.0871 24.3918 56.8164C24.6566 54.9314 26.292 53.6233 28.0728 52.9316C29.4895 52.3846 31.0217 52.2052 32.5265 52.4102C33.2149 52.4791 33.9099 52.3859 34.5558 52.1379C34.5848 53.1677 34.2355 54.1724 33.5739 54.9621ZM67.9531 33.8503L53.6395 50.3479C52.7782 51.3927 51.6962 52.2337 50.4711 52.8104C49.2461 53.3872 47.9085 53.6854 46.5545 53.6835H34.7551C34.9644 53.0802 35.0343 52.4373 34.9596 51.8031C34.9589 51.7749 34.9527 51.7471 34.9413 51.7212C34.9298 51.6954 34.9134 51.6721 34.893 51.6526C34.8725 51.6332 34.8485 51.6179 34.8221 51.6077C34.7958 51.5976 34.7677 51.5927 34.7395 51.5934C34.0603 51.9474 33.2891 52.0852 32.5294 51.9885C31.477 51.8735 30.4134 51.9155 29.3733 52.113C29.5008 51.8437 29.6253 51.5731 29.751 51.302H46.2799C47.6943 51.3439 49.1004 51.0717 50.397 50.5051C51.6936 49.9384 52.8485 49.0913 53.7785 48.0248C54.4667 47.237 67.0714 32.7038 67.9502 31.6912L67.9531 33.8503ZM67.6854 31.3546L53.6366 47.5434C52.7753 48.5882 51.6932 49.4291 50.4682 50.0057C49.2432 50.5824 47.9056 50.8805 46.5516 50.8785H29.9457C30.5192 49.6359 31.073 48.3834 31.5898 47.1159C34.2129 47.2676 36.8441 47.2034 39.4568 46.9241C40.4546 46.8452 41.4395 46.6484 42.391 46.3379H54.1568C54.2112 46.335 54.2624 46.3114 54.2999 46.2719C54.3374 46.2324 54.3583 46.18 54.3583 46.1256C54.3583 46.0711 54.3374 46.0187 54.2999 45.9792C54.2624 45.9397 54.2112 45.9161 54.1568 45.9132H43.304C45.1236 44.8769 45.7742 42.3598 44.0449 41.1195H48.26C48.3106 41.1115 48.3567 41.0857 48.39 41.0468C48.4232 41.0079 48.4415 40.9584 48.4415 40.9071C48.4415 40.8559 48.4232 40.8064 48.39 40.7675C48.3567 40.7285 48.3106 40.7028 48.26 40.6948H43.282C41.1727 39.8768 36.6396 39.688 34.5257 39.14C33.2825 38.8393 32.3788 37.7496 32.4749 36.0777H41.6408C41.6952 36.0749 41.7464 36.0513 41.7839 36.0118C41.8214 35.9723 41.8423 35.9199 41.8423 35.8654C41.8423 35.8109 41.8214 35.7585 41.7839 35.719C41.7464 35.6795 41.6952 35.6559 41.6408 35.6531H32.5195C32.7866 33.9198 33.8595 32.5347 35.1409 31.3378C35.1409 31.3366 67.175 31.3668 67.6825 31.3546H67.6854ZM70.458 15.8152L73.818 21.5799H67.098C67.1571 21.4779 70.3995 15.9119 70.458 15.8152ZM18.9087 11.2439C18.9108 10.4414 19.074 9.6476 19.3888 8.90948C19.7035 8.17137 20.1634 7.504 20.741 6.94698C21.3186 6.38997 22.0022 5.95466 22.7512 5.66688C23.5003 5.37911 24.2995 5.24474 25.1015 5.27174H62.0771C63.6612 5.25646 65.1866 5.87109 66.3175 6.98043C67.4485 8.08977 68.0924 9.60295 68.1077 11.1871V13.29C68.0927 13.29 68.0788 13.2952 68.0631 13.2946C67.8727 13.2864 67.6888 13.2232 67.5336 13.1125C67.3785 13.0019 67.2587 12.8486 67.1889 12.6713C66.8228 11.7704 67.2631 10.7485 66.8367 9.8564C66.7522 9.66732 66.628 9.49866 66.4724 9.36191C66.3169 9.22515 66.1337 9.12351 65.9353 9.06391C65.7253 9.0212 65.5077 9.03685 65.306 9.10916C65.1042 9.18147 64.9262 9.30767 64.7912 9.47406C63.9512 10.4896 64.6133 11.9796 64.1406 12.8543C64.0253 12.9557 63.889 13.0301 63.7414 13.0723C63.5938 13.1145 63.4387 13.1234 63.2872 13.0984C63.1358 13.0733 62.9918 13.015 62.8657 12.9275C62.7396 12.84 62.6345 12.7256 62.5579 12.5925C62.3349 12.1661 62.2371 11.6853 62.2758 11.2056C62.2903 10.6362 62.3378 10.0681 62.4183 9.50418C62.4519 9.23364 62.0273 9.23654 61.9937 9.50418C61.8119 10.4469 61.8094 11.4154 61.9862 12.359C62.1059 12.7674 62.3698 13.1184 62.7288 13.3467C63.0795 13.5324 63.4852 13.5856 63.8718 13.4968C64.8566 13.2871 64.7582 12.0595 64.746 11.289C64.7073 10.8474 64.7778 10.4029 64.9511 9.99486C65.0237 9.8 65.1698 9.64131 65.3579 9.55275C65.5461 9.46419 65.7615 9.45278 65.9579 9.52098C66.9016 9.95778 66.5662 11.3035 66.6293 12.1111C66.6983 12.9939 67.2225 13.7331 68.1089 13.7204V19.0043L66.5488 21.6824C66.5307 21.7148 66.5212 21.7513 66.5214 21.7883C66.5216 21.8254 66.5314 21.8618 66.5498 21.894C66.5682 21.9261 66.5947 21.953 66.6266 21.9718C66.6585 21.9907 66.6948 22.001 66.7319 22.0016H68.1089V29.1926H37.716C38.9523 28.2941 40.0717 27.2448 41.0482 26.069C41.7962 25.227 42.2722 24.1786 42.4136 23.0612C42.4629 22.58 42.3916 22.0941 42.2061 21.6474C42.0206 21.2006 41.7268 20.8071 41.3511 20.5024C40.3918 19.7377 39.1787 20.0731 38.1719 20.5713C34.3553 22.5795 30.7049 24.8888 27.2554 27.4773C27.0503 26.6371 26.6534 25.8558 26.0958 25.1948C25.5382 24.5337 24.835 24.0108 24.0413 23.6672C23.2309 23.3184 22.3584 23.1366 21.4761 23.1328C20.5938 23.1291 19.7197 23.3033 18.9063 23.6451L18.9087 11.2439ZM3.59574 38.0485C3.73362 33.4077 5.37828 25.9346 9.81869 24.4174C11.9129 23.7025 14.5557 24.2552 15.4919 26.3291C15.5085 26.3569 15.5312 26.3806 15.5583 26.3984C15.5854 26.4162 15.6161 26.4276 15.6483 26.4317C15.6804 26.4358 15.7131 26.4326 15.7438 26.4223C15.7745 26.4119 15.8025 26.3947 15.8256 26.372C18.6485 23.1203 23.0293 22.5375 25.6738 25.3518C26.3371 26.0561 26.7665 26.9482 26.9031 27.906C26.9185 27.9602 26.9548 28.0062 27.0039 28.0339C27.0531 28.0616 27.1112 28.0687 27.1656 28.0537C30.6344 25.4528 34.2959 23.1193 38.1186 21.0736C38.6443 20.7574 39.2293 20.5525 39.8374 20.4717C40.3249 20.4569 40.8019 20.6158 41.183 20.9202C41.5642 21.2245 41.8248 21.6544 41.9183 22.1331C42.011 22.6754 41.9895 23.231 41.8552 23.7645C41.7209 24.2979 41.4768 24.7975 41.1385 25.2313C39.0113 28.4239 34.9434 29.9932 32.9059 33.3886C32.0422 34.8281 31.5857 36.9502 32.6673 38.4077C33.3284 39.1754 34.2645 39.6528 35.2742 39.7372C41.135 40.7325 43.9001 40.5089 44.5344 42.4345C44.6486 42.885 44.6424 43.3576 44.5165 43.805C44.3905 44.2523 44.1492 44.6587 43.8167 44.9835C43.0252 45.7106 42.0246 46.1696 40.9572 46.295C37.8127 46.7577 34.6283 46.8882 31.4565 46.6843C31.1448 46.6901 31.4565 46.7585 28.845 52.2376C27.9583 52.4699 27.1156 52.8454 26.3499 53.3493C26.3499 53.3493 3.80719 53.3255 3.54013 53.3377C3.55925 47.7195 3.57663 38.5398 3.59574 38.0485ZM45.0906 106.134C39.724 105.758 34.4981 104.249 29.7574 101.705C22.4367 97.7488 13.7991 90.9882 10.0307 88.3975C9.80479 88.2423 9.59218 88.6102 9.81638 88.7637C13.7377 91.454 16.0434 93.3947 21.8828 97.3514C29.6832 102.632 35.7816 105.891 45.382 106.582V106.677C45.382 106.677 3.46598 106.669 3.32405 106.672C3.32405 104.235 3.53549 54.1447 3.53723 53.7739H25.7752C25.2176 54.2149 24.7543 54.7633 24.4127 55.3867C24.0002 56.1902 23.6775 57.3361 24.28 58.0035C24.1996 58.1624 24.1314 58.3272 24.0761 58.4964C23.6026 58.8136 23.2225 59.2516 22.9754 59.7651C22.3299 61.1974 22.227 62.8154 22.6858 64.3179C21.3088 66.8701 19.9227 69.4174 18.5275 71.9596C18.5075 71.9962 18.4986 72.0378 18.5019 72.0793C18.5051 72.1209 18.5204 72.1606 18.5458 72.1936C18.5712 72.2266 18.6057 72.2516 18.645 72.2654C18.6843 72.2791 18.7268 72.2812 18.7673 72.2713C28.3508 69.121 37.8202 71.6752 42.1535 81.1469C43.216 83.4026 44.0196 85.7715 44.5489 88.2081C41.2162 88.8795 38.1499 89.4305 34.7939 88.7295C29.4544 87.5518 21.0173 83.233 14.5181 80.7895C14.262 80.6933 14.1514 81.1034 14.4022 81.199C22.6898 84.3059 31.5208 89.2514 37.3226 89.4687C42.6569 89.6691 52.3534 86.688 61.5917 84.7508V104.079C61.5917 104.276 61.5546 104.53 61.5743 104.745C56.1821 106.042 50.6238 106.511 45.0906 106.134ZM94.7334 106.502H56.2197V106.169C62.9229 105.232 69.5798 103.112 75.8728 100.638C76.6259 100.345 77.3686 100.03 78.1228 99.7416C78.7252 99.5191 79.2913 99.2087 79.8029 98.8205C80.0056 98.6745 80.1768 98.489 80.3061 98.2752C80.4354 98.0614 80.5201 97.8236 80.5551 97.5762C80.5902 97.3288 80.5749 97.0769 80.5101 96.8356C80.4454 96.5942 80.3325 96.3685 80.1782 96.1719C80.9185 96.2014 81.6523 96.0241 82.2974 95.6598C82.485 95.5393 82.6519 95.3893 82.7915 95.2154L84.4831 96.9534C84.5671 97.0629 84.6833 97.1434 84.8153 97.1835C84.9474 97.2237 85.0887 97.2216 85.2195 97.1775C85.3502 97.1334 85.464 97.0494 85.5447 96.9375C85.6254 96.8255 85.669 96.6911 85.6695 96.5531C85.6361 96.3341 85.5385 96.1298 85.3891 95.9662C84.7392 95.0208 83.3459 93.0117 83.3036 92.9463C83.7141 92.7881 84.055 92.4892 84.2653 92.1028H94.7352L94.7334 106.502Z" fill="black"/>
<path d="M38.2153 18.6487C38.4007 18.8508 38.7002 18.5496 38.5154 18.3486C38.5154 18.3486 35.6808 15.2638 35.598 15.1745L38.6179 11.5249C38.7917 11.3158 38.4922 11.0139 38.3178 11.2248L35.167 15.0297C35.1289 15.0704 35.1077 15.124 35.1077 15.1798C35.1077 15.2355 35.1289 15.2891 35.167 15.3298C39.2424 19.7065 37.9674 18.3793 38.2153 18.6487Z" fill="black"/>
<path d="M52.133 15.1744L49.2162 18.3485C49.0314 18.5495 49.3321 18.8508 49.5163 18.6486L52.5646 15.332C52.6028 15.2914 52.6241 15.2377 52.6241 15.182C52.6241 15.1262 52.6028 15.0726 52.5646 15.0319L49.4149 11.227C49.2411 11.0162 48.9416 11.318 49.1148 11.5271L52.133 15.1744Z" fill="black"/>
<path d="M40.6851 18.6712C42.5047 16.9159 47.5731 11.7832 47.5731 11.7832C47.61 11.7428 47.6299 11.6897 47.6286 11.635C47.6273 11.5802 47.605 11.5281 47.5662 11.4894C47.5275 11.4508 47.4753 11.4285 47.4206 11.4274C47.3658 11.4262 47.3128 11.4462 47.2724 11.4832C45.454 13.2408 40.8838 17.8556 40.385 18.3706C40.348 18.4109 40.328 18.464 40.3292 18.5188C40.3303 18.5735 40.3526 18.6257 40.3913 18.6644C40.4299 18.7032 40.4821 18.7255 40.5368 18.7268C40.5915 18.728 40.6446 18.7082 40.6851 18.6712Z" fill="black"/>
<path d="M55.1004 36.0766H63.3556C63.41 36.0738 63.4612 36.0502 63.4987 36.0107C63.5362 35.9712 63.5571 35.9188 63.5571 35.8643C63.5571 35.8098 63.5362 35.7574 63.4987 35.7179C63.4612 35.6784 63.41 35.6548 63.3556 35.652H55.1004C55.046 35.6548 54.9948 35.6784 54.9573 35.7179C54.9198 35.7574 54.8989 35.8098 54.8989 35.8643C54.8989 35.9188 54.9198 35.9712 54.9573 36.0107C54.9948 36.0502 55.046 36.0738 55.1004 36.0766Z" fill="black"/>
<path d="M44.3388 36.0766H52.4144C52.4688 36.0738 52.52 36.0502 52.5575 36.0107C52.595 35.9712 52.6159 35.9188 52.6159 35.8643C52.6159 35.8098 52.595 35.7574 52.5575 35.7179C52.52 35.6784 52.4688 35.6548 52.4144 35.652H44.3388C44.2844 35.6548 44.2332 35.6784 44.1957 35.7179C44.1582 35.7574 44.1373 35.8098 44.1373 35.8643C44.1373 35.9188 44.1582 35.9712 44.1957 36.0107C44.2332 36.0502 44.2844 36.0738 44.3388 36.0766Z" fill="black"/>
<path d="M44.3388 54.768C44.2826 54.768 44.2287 54.7903 44.1889 54.8301C44.1491 54.8699 44.1268 54.9238 44.1268 54.98C44.1268 55.0363 44.1491 55.0902 44.1889 55.13C44.2287 55.1697 44.2826 55.1921 44.3388 55.1921H49.647C49.7033 55.1921 49.7572 55.1697 49.797 55.13C49.8367 55.0902 49.8591 55.0363 49.8591 54.98C49.8591 54.9238 49.8367 54.8699 49.797 54.8301C49.7572 54.7903 49.7033 54.768 49.647 54.768H44.3388Z" fill="black"/>
<path d="M58.8449 40.6939H50.8394C50.785 40.6967 50.7337 40.7203 50.6962 40.7598C50.6588 40.7993 50.6378 40.8517 50.6378 40.9062C50.6378 40.9607 50.6588 41.013 50.6962 41.0526C50.7337 41.0921 50.785 41.1157 50.8394 41.1185H58.8449C58.8992 41.1157 58.9505 41.0921 58.988 41.0526C59.0255 41.013 59.0464 40.9607 59.0464 40.9062C59.0464 40.8517 59.0255 40.7993 58.988 40.7598C58.9505 40.7203 58.8992 40.6967 58.8449 40.6939Z" fill="black"/>
<path d="M12.0368 31.6078C12.7138 30.0777 13.6474 28.6747 14.7972 27.4593C14.9855 27.2612 14.686 26.9605 14.4971 27.1592C13.317 28.3969 12.3604 29.83 11.6701 31.3946C11.5612 31.6414 11.9273 31.858 12.0368 31.6078Z" fill="black"/>
<path d="M22.7201 33.6787C23.4831 31.8356 24.67 30.1984 26.1844 28.9C26.3923 28.7227 26.0905 28.4238 25.8837 28.5999C24.3125 29.9451 23.0879 31.6485 22.3134 33.5663C22.208 33.8189 22.6187 33.929 22.7201 33.6787Z" fill="black"/>
<path d="M14.5657 56.6896C14.9658 56.4776 15.4131 56.3706 15.8658 56.3786C16.3185 56.3866 16.7618 56.5093 17.1541 56.7354C17.7243 57.11 18.1959 57.6165 18.5288 58.212C19.4337 59.5491 21.0117 62.4989 21.4613 63.252C21.4759 63.2758 21.4952 63.2964 21.5179 63.3127C21.5406 63.3289 21.5663 63.3405 21.5936 63.3467C21.6208 63.3529 21.649 63.3536 21.6765 63.3488C21.704 63.344 21.7303 63.3337 21.7538 63.3187C21.7995 63.29 21.8326 63.2449 21.8463 63.1927C21.8599 63.1405 21.8532 63.0851 21.8274 63.0377C19.7193 59.3081 18.5456 56.9804 17.3273 56.3461C16.8845 56.1061 16.3911 55.9745 15.8876 55.9621C15.3841 55.9498 14.8848 56.0569 14.4307 56.2748C13.8832 56.6119 13.4553 57.1124 13.2074 57.7057C12.9595 58.299 12.9041 58.9551 13.0491 59.5815C13.0566 59.6079 13.0693 59.6325 13.0864 59.654C13.1034 59.6755 13.1246 59.6934 13.1486 59.7067C13.1726 59.72 13.199 59.7284 13.2262 59.7315C13.2535 59.7345 13.2811 59.7322 13.3075 59.7246C13.36 59.7084 13.4047 59.6732 13.4327 59.6259C13.4606 59.5785 13.4699 59.5224 13.4587 59.4686C13.3379 58.9477 13.3793 58.4024 13.5771 57.9058C13.775 57.4091 14.1199 56.9847 14.5657 56.6896Z" fill="black"/>
<path d="M74.1518 88.7735L81.2287 92.3606C81.472 92.484 81.6869 92.1178 81.443 91.9944L74.3661 88.4068C74.1234 88.2834 73.9085 88.6495 74.1518 88.7735Z" fill="black"/>
<path d="M78.3068 95.9917C78.3218 95.9374 78.3145 95.8794 78.2867 95.8304C78.2589 95.7814 78.2128 95.7455 78.1585 95.7305C76.1649 95.4454 74.1634 95.233 72.154 95.0932C71.8817 95.0741 71.8829 95.4987 72.154 95.5179C74.1236 95.6553 76.0875 95.8635 78.0456 96.1424C78.1001 96.1557 78.1577 96.1474 78.2064 96.1194C78.255 96.0913 78.291 96.0456 78.3068 95.9917Z" fill="black"/>
<path d="M65.1081 68.8469L61.1589 72.2069C60.9504 72.3842 61.2516 72.6831 61.459 72.507L65.4082 69.147C65.6167 68.9697 65.3149 68.6702 65.1081 68.8469Z" fill="black"/>
<path d="M60.9145 71.8514C62.2662 70.7735 63.5918 69.6653 64.8914 68.5268C65.0971 68.3466 64.7958 68.0471 64.5908 68.2267C63.2908 69.3648 61.9653 70.473 60.6144 71.5513C60.4006 71.7217 60.7024 72.0206 60.9145 71.8514Z" fill="black"/>
<path d="M51.0733 104.276H48.1512C48.0968 104.279 48.0456 104.302 48.0081 104.342C47.9706 104.381 47.9497 104.434 47.9497 104.488C47.9497 104.543 47.9706 104.595 48.0081 104.635C48.0456 104.674 48.0968 104.698 48.1512 104.701H51.0733C51.1277 104.698 51.1789 104.674 51.2164 104.635C51.2539 104.595 51.2748 104.543 51.2748 104.488C51.2748 104.434 51.2539 104.381 51.2164 104.342C51.1789 104.302 51.1277 104.279 51.0733 104.276Z" fill="black"/>
<path d="M5.04425 55.8612C4.99046 55.8631 4.93938 55.8853 4.90131 55.9233C4.86325 55.9614 4.84105 56.0125 4.83917 56.0663V59.5103C4.84201 59.5647 4.86562 59.6159 4.90513 59.6534C4.94463 59.6909 4.99702 59.7118 5.05149 59.7118C5.10596 59.7118 5.15835 59.6909 5.19785 59.6534C5.23736 59.6159 5.26097 59.5647 5.26381 59.5103V56.0663C5.26184 56.01 5.23762 55.9568 5.19645 55.9183C5.15529 55.8799 5.10055 55.8593 5.04425 55.8612Z" fill="black"/>
<path d="M102.556 84.9009C101.748 85.1767 101.048 85.6994 100.553 86.395C100.058 87.0906 99.7949 87.9241 99.7997 88.7776V106.684C99.8025 106.738 99.8261 106.789 99.8656 106.827C99.9051 106.864 99.9575 106.885 100.012 106.885C100.066 106.885 100.119 106.864 100.158 106.827C100.198 106.789 100.221 106.738 100.224 106.684C100.224 106.684 100.224 88.8541 100.224 88.7597C100.25 87.8114 100.643 86.9102 101.321 86.2471C102 85.584 102.91 85.211 103.858 85.2072C104.807 85.2035 105.72 85.5692 106.403 86.2269C107.087 86.8846 107.487 87.7827 107.52 88.7307C107.52 88.9271 107.517 89.1235 107.52 89.3199C107.523 89.3742 107.547 89.4255 107.586 89.463C107.626 89.5005 107.678 89.5214 107.732 89.5214C107.787 89.5214 107.839 89.5005 107.879 89.463C107.918 89.4255 107.942 89.3742 107.945 89.3199C107.986 88.6846 107.912 88.0472 107.726 87.4383C107.557 86.9297 107.288 86.4599 106.936 86.0563C106.583 85.6526 106.154 85.3231 105.673 85.087C105.191 84.8508 104.668 84.7128 104.133 84.6808C103.598 84.6489 103.062 84.7237 102.556 84.9009Z" fill="black"/>
<path d="M107.246 84.116C106.368 83.5536 105.364 83.2173 104.324 83.1371C103.284 83.0569 102.241 83.2354 101.287 83.6566C100.346 84.102 99.5516 84.8059 98.9964 85.6861C98.4412 86.5663 98.1481 87.5864 98.1513 88.6271C98.1478 89.2533 98.1513 106.346 98.1513 106.346C98.175 108.32 96.8728 110.506 93.8911 110.591C91.3635 110.662 83.6315 110.542 55.8854 110.591C55.8574 110.592 55.8299 110.598 55.8043 110.609C55.7788 110.621 55.7558 110.637 55.7367 110.658C55.7176 110.678 55.7028 110.702 55.6931 110.729C55.6834 110.755 55.6791 110.783 55.6803 110.811C55.6823 110.864 55.7046 110.915 55.7426 110.953C55.7806 110.991 55.8317 111.014 55.8854 111.016H93.8725C94.4742 111.032 95.0731 110.929 95.635 110.713C96.1969 110.498 96.7109 110.174 97.1475 109.759C97.5841 109.345 97.9348 108.849 98.1796 108.299C98.4244 107.749 98.5585 107.157 98.5742 106.555V89.6716C98.5213 88.8266 98.5935 87.9784 98.7885 87.1545C100.474 81.7432 109.549 82.3868 109.166 89.3176C109.166 89.3739 109.189 89.4278 109.228 89.4676C109.268 89.5073 109.322 89.5297 109.378 89.5297C109.435 89.5297 109.488 89.5073 109.528 89.4676C109.568 89.4278 109.59 89.3739 109.59 89.3176C109.698 88.3204 109.538 87.3124 109.126 86.3979C108.714 85.4834 108.065 84.6956 107.246 84.116Z" fill="black"/>
<path d="M97.5561 84.9774C96.7755 86.2555 96.3779 87.7306 96.4102 89.2278C96.4102 89.2278 96.4056 105.965 96.4102 106.254C96.4183 106.576 96.3558 106.896 96.2271 107.192C96.0984 107.487 95.9067 107.751 95.6652 107.964C95.117 108.362 94.4388 108.537 93.7668 108.455H55.9465C55.8921 108.457 55.8409 108.481 55.8034 108.52C55.7659 108.56 55.745 108.612 55.745 108.667C55.745 108.721 55.7659 108.774 55.8034 108.813C55.8409 108.853 55.8921 108.876 55.9465 108.879C55.9465 108.879 93.75 108.879 94.214 108.879C94.5501 108.887 94.8845 108.83 95.1982 108.709C95.5119 108.588 95.7987 108.406 96.0421 108.174C96.2856 107.942 96.4811 107.665 96.6173 107.358C96.7535 107.05 96.8278 106.719 96.836 106.383V88.9746C96.8348 88.0302 97.0233 87.0951 97.3902 86.2248C97.7571 85.3545 98.295 84.5667 98.972 83.9081C99.649 83.2495 100.451 82.7335 101.331 82.3907C102.211 82.0479 103.151 81.8853 104.095 81.9124C105.039 81.9396 105.969 82.1559 106.827 82.5488C107.686 82.9416 108.458 83.5028 109.096 84.1992C109.734 84.8956 110.225 85.713 110.542 86.603C110.858 87.4929 110.992 88.4373 110.937 89.3802C110.94 89.4346 110.963 89.4858 111.003 89.5233C111.042 89.5608 111.095 89.5817 111.149 89.5817C111.204 89.5817 111.256 89.5608 111.296 89.5233C111.335 89.4858 111.359 89.4346 111.362 89.3802C111.414 88.3225 111.243 87.2657 110.862 86.2778C110.48 85.29 109.896 84.3931 109.146 83.645C108.35 82.8574 107.388 82.2587 106.329 81.8929C105.271 81.527 104.144 81.4035 103.032 81.5314C101.919 81.6593 100.85 82.0353 99.902 82.6317C98.9543 83.2282 98.1526 84.0298 97.5561 84.9774Z" fill="black"/>
<path d="M98.6228 81.3352C97.4311 82.1777 96.4598 83.2948 95.7911 84.5921C95.1225 85.8894 94.7761 87.3286 94.7814 88.7881V90.9396C94.7814 90.9958 94.8037 91.0498 94.8435 91.0895C94.8832 91.1293 94.9372 91.1516 94.9934 91.1516C95.0496 91.1516 95.1036 91.1293 95.1433 91.0895C95.1831 91.0498 95.2054 90.9958 95.2054 90.9396C95.1299 89.5253 95.2117 88.1069 95.4493 86.7106C95.9509 84.6417 97.1963 82.8296 98.9483 81.6201C100.7 80.4105 102.836 79.8881 104.948 80.1524C107.061 80.4167 109.002 81.4493 110.402 83.0532C111.802 84.6571 112.563 86.7201 112.539 88.8489V89.2892C112.542 89.3436 112.565 89.3948 112.605 89.4323C112.644 89.4698 112.697 89.4907 112.751 89.4907C112.806 89.4907 112.858 89.4698 112.898 89.4323C112.937 89.3948 112.961 89.3436 112.964 89.2892C113.06 87.5796 112.673 85.8775 111.846 84.3781C111.019 82.8787 109.786 81.6428 108.289 80.8123C106.792 79.9818 105.09 79.5903 103.381 79.6828C101.671 79.7753 100.022 80.348 98.6228 81.3352Z" fill="black"/>
<path d="M77.1336 53.0956C77.228 52.9664 77.2263 53.3771 77.1962 49.2356C77.1956 49.1795 77.1729 49.1258 77.1332 49.0862C77.0934 49.0465 77.0397 49.024 76.9835 49.0236H73.2731C73.217 49.0243 73.1634 49.0469 73.1238 49.0865C73.0841 49.1261 73.0614 49.1796 73.0605 49.2356V52.949C73.0612 53.0052 73.0838 53.0588 73.1236 53.0985C73.1633 53.1382 73.2169 53.1609 73.2731 53.1616C77.3862 53.1888 77.0287 53.1848 77.1336 53.0956ZM76.7715 52.7341H73.4851V49.4476H76.7715V52.7341Z" fill="black"/>
<path d="M90.184 53.7751C91.063 53.7762 91.9226 53.5165 92.654 53.029C93.3855 52.5415 93.956 51.848 94.2933 51.0363C94.6307 50.2246 94.7197 49.3311 94.5492 48.4687C94.3788 47.6064 93.9564 46.8139 93.3356 46.1916C92.7147 45.5693 91.9233 45.1451 91.0614 44.9726C90.1994 44.8001 89.3057 44.8871 88.4932 45.2225C87.6806 45.558 86.9858 46.1268 86.4966 46.8571C86.0074 47.5874 85.7457 48.4464 85.7447 49.3255C85.7439 49.9092 85.858 50.4873 86.0807 51.0269C86.3034 51.5664 86.6302 52.0568 87.0424 52.47C87.4547 52.8833 87.9443 53.2112 88.4833 53.4351C89.0224 53.6591 89.6003 53.7746 90.184 53.7751ZM88.7699 45.5489C89.5168 45.2704 90.3296 45.2196 91.1055 45.4029C91.8813 45.5863 92.5853 45.9956 93.1286 46.5791C93.6718 47.1626 94.0298 47.8941 94.1573 48.681C94.2848 49.468 94.1761 50.2751 93.8449 51.0002C93.5137 51.7254 92.9749 52.3361 92.2966 52.755C91.6184 53.174 90.8311 53.3824 90.0344 53.354C89.2377 53.3255 88.4673 53.0614 87.8207 52.5951C87.1741 52.1289 86.6802 51.4813 86.4016 50.7343C86.0287 49.7326 86.0686 48.6238 86.5127 47.6515C86.9567 46.6793 87.7686 45.923 88.7699 45.5489Z" fill="black"/>
<path d="M86.9701 78.7162C87.4414 78.5347 87.9472 78.4603 88.4508 78.4984C89.1419 78.5838 89.8434 78.5056 90.4987 78.2701C90.7335 78.1668 90.9426 78.0128 91.1109 77.819C91.2792 77.6253 91.4025 77.3968 91.4719 77.1497C91.5192 76.8868 91.4913 76.6159 91.3913 76.3682C91.2914 76.1205 91.1235 75.9061 90.9071 75.7495C89.9136 74.9901 88.6878 75.3266 87.5471 75.2137C87.0437 75.1633 86.5565 75.026 86.4429 74.4785C86.3879 74.245 86.3918 74.0015 86.4542 73.7698C86.5166 73.5382 86.6355 73.3256 86.8004 73.1513C87.1952 72.8094 87.6948 72.6124 88.2168 72.5929C89.1365 72.5489 90.0582 72.6002 90.9673 72.7458C91.2379 72.7794 91.2356 72.3542 90.9673 72.3218C89.8007 72.0966 88.6025 72.0901 87.4335 72.3026C86.9311 72.4463 86.4985 72.7685 86.217 73.2087C85.9846 73.6456 85.9227 74.1532 86.0432 74.6332C86.3386 75.8654 87.9613 75.6522 88.9166 75.6482C89.4558 75.6105 89.9951 75.7203 90.4767 75.9656C90.7114 76.0752 90.8951 76.2708 90.9897 76.5121C91.0842 76.7533 91.0825 77.0216 90.9847 77.2615C90.5439 78.134 89.5364 78.1189 88.6211 78.0958C88.2116 78.0314 87.7934 78.0488 87.3907 78.1471C86.988 78.2453 86.6088 78.4224 86.2749 78.6681C86.1002 78.8384 85.9639 79.0441 85.8752 79.2714C85.7864 79.4986 85.7472 79.7422 85.7602 79.9859C85.7732 80.2295 85.8381 80.4676 85.9505 80.6841C86.063 80.9006 86.2204 81.0906 86.4122 81.2414C86.8522 81.5326 87.3677 81.6886 87.8953 81.6904C88.4023 81.6852 88.9092 81.7111 89.413 81.768C89.8558 81.8174 90.2665 82.0228 90.5717 82.3473C91.093 83.0865 90.4477 84.0163 89.4785 84.1281C88.315 84.278 87.1381 84.292 85.9714 84.1698C85.7002 84.1409 85.702 84.5655 85.9714 84.5945C87.3085 84.7366 88.659 84.6881 89.9825 84.4502C90.9378 84.1264 91.5356 83.0257 90.9552 82.1567C90.6782 81.7975 90.2878 81.5427 89.8475 81.4337C89.3708 81.3161 88.8802 81.2646 88.3894 81.2808C87.8603 81.311 87.3314 81.2195 86.8432 81.0132C86.6321 80.8977 86.4579 80.7248 86.3409 80.5145C86.2239 80.3041 86.1689 80.065 86.1822 79.8247C86.1954 79.5843 86.2765 79.3527 86.4159 79.1565C86.5554 78.9604 86.7475 78.8077 86.9701 78.7162Z" fill="black"/>
<path d="M75.2241 35.9288C75.2971 35.9706 74.9924 35.9567 80.2705 35.9567C80.3071 35.9546 80.3425 35.9435 80.3737 35.9243C80.4049 35.905 80.4307 35.8783 80.4489 35.8465C80.4671 35.8147 80.4771 35.7789 80.4779 35.7423C80.4787 35.7057 80.4703 35.6694 80.4536 35.6369L77.9816 31.394C77.9521 31.3453 77.9045 31.3104 77.8492 31.2968C77.7939 31.2832 77.7355 31.2922 77.6868 31.3216C77.6091 31.3691 77.7853 31.1113 75.1424 35.6369C75.1286 35.6614 75.1198 35.6884 75.1164 35.7164C75.113 35.7443 75.1152 35.7727 75.1228 35.7998C75.1304 35.8269 75.1432 35.8522 75.1606 35.8744C75.178 35.8965 75.1996 35.915 75.2241 35.9288ZM77.798 31.9223L79.9009 35.532H75.6951C75.7837 35.3808 77.7522 32.0023 77.798 31.92V31.9223Z" fill="black"/>
<path d="M80.0099 18.5205C80.1802 18.5163 80.3496 18.547 80.5076 18.6107C80.6656 18.6743 80.8089 18.7696 80.9288 18.8906C81.0486 19.0116 81.1425 19.1559 81.2047 19.3144C81.2668 19.473 81.2959 19.6427 81.2902 19.8129V22.0606C81.291 22.1167 81.3135 22.1702 81.3531 22.2099C81.3927 22.2496 81.4462 22.2723 81.5022 22.2732H85.2544C85.3106 22.2725 85.3642 22.2498 85.4039 22.2101C85.4436 22.1704 85.4663 22.1168 85.467 22.0606C85.492 18.6224 85.5169 18.3426 85.2666 17.4476C84.9834 16.5489 84.4215 15.7637 83.6622 15.2057C82.9029 14.6478 81.9857 14.346 81.0434 14.3442H80.0099C79.9539 14.345 79.9003 14.3675 79.8606 14.4071C79.8209 14.4467 79.7982 14.5002 79.7973 14.5562V18.3061C79.7972 18.3627 79.8195 18.4171 79.8593 18.4572C79.8992 18.4974 79.9533 18.5201 80.0099 18.5205ZM80.222 14.7688H81.0452C81.5973 14.7672 82.1438 14.8799 82.6503 15.1C83.1567 15.32 83.612 15.6426 83.9876 16.0474C84.3631 16.4521 84.6507 16.9303 84.8323 17.4518C85.0138 17.9733 85.0854 18.5267 85.0424 19.0772V21.8486H81.7148V20.4988C81.8074 19.8887 81.6864 19.2654 81.3725 18.7342C81.2338 18.5566 81.0601 18.4094 80.8622 18.3017C80.6643 18.1939 80.4464 18.128 80.222 18.108V14.7688Z" fill="black"/>
<path d="M81.3445 74.5341C81.3983 74.5322 81.4494 74.51 81.4875 74.4719C81.5255 74.4339 81.5477 74.3828 81.5496 74.329V65.6602H87.3902C87.4191 65.6587 87.4474 65.6515 87.4735 65.6391C87.4996 65.6266 87.5229 65.6091 87.5422 65.5875C87.5615 65.566 87.5763 65.5408 87.5858 65.5135C87.5953 65.4862 87.5993 65.4573 87.5976 65.4285C87.5912 65.2906 85.906 62.4711 82.4157 56.4868C82.3966 56.4553 82.3697 56.4292 82.3376 56.4111C82.3054 56.393 82.2692 56.3835 82.2323 56.3835C82.1955 56.3835 82.1592 56.393 82.1271 56.4111C82.095 56.4292 82.0681 56.4553 82.049 56.4868L76.8931 65.3398C76.8661 65.3891 76.8594 65.4471 76.8746 65.5012C76.8897 65.5554 76.9255 65.6014 76.9742 65.6295C77.0501 65.6718 76.8114 65.6567 81.1267 65.6567V74.3255C81.1272 74.3535 81.1333 74.3812 81.1446 74.4068C81.1558 74.4325 81.172 74.4557 81.1923 74.4751C81.2125 74.4945 81.2364 74.5097 81.2625 74.5198C81.2886 74.5299 81.3165 74.5348 81.3445 74.5341ZM77.444 65.2356L82.2326 57.0163L87.0206 65.2356H81.5496V63.8927C81.5468 63.8383 81.5232 63.7871 81.4837 63.7496C81.4442 63.7121 81.3918 63.6912 81.3373 63.6912C81.2828 63.6912 81.2304 63.7121 81.1909 63.7496C81.1514 63.7871 81.1278 63.8383 81.125 63.8927V65.2356H77.444Z" fill="black"/>
<path d="M78.941 53.5613V44.378C78.9382 44.3236 78.9146 44.2724 78.8751 44.2349C78.8356 44.1974 78.7832 44.1765 78.7287 44.1765C78.6742 44.1765 78.6219 44.1974 78.5823 44.2349C78.5428 44.2724 78.5192 44.3236 78.5164 44.378V53.5613C78.5192 53.6156 78.5428 53.6669 78.5823 53.7044C78.6219 53.7419 78.6742 53.7628 78.7287 53.7628C78.7832 53.7628 78.8356 53.7419 78.8751 53.7044C78.9146 53.6669 78.9382 53.6156 78.941 53.5613Z" fill="black"/>
<path d="M82.2808 44.1691V31.0188C82.2779 30.9644 82.2543 30.9132 82.2148 30.8757C82.1753 30.8382 82.1229 30.8173 82.0685 30.8173C82.014 30.8173 81.9616 30.8382 81.9221 30.8757C81.8826 30.9132 81.859 30.9644 81.8562 31.0188V44.1691C81.859 44.2235 81.8826 44.2747 81.9221 44.3122C81.9616 44.3497 82.014 44.3706 82.0685 44.3706C82.1229 44.3706 82.1753 44.3497 82.2148 44.3122C82.2543 44.2747 82.2779 44.2235 82.2808 44.1691Z" fill="black"/>
<path d="M84.5793 37.8036V27.785C84.5764 27.7306 84.5528 27.6794 84.5133 27.6419C84.4738 27.6044 84.4214 27.5835 84.3669 27.5835C84.3125 27.5835 84.2601 27.6044 84.2206 27.6419C84.1811 27.6794 84.1575 27.7306 84.1546 27.785V37.8036C84.1575 37.858 84.1811 37.9092 84.2206 37.9467C84.2601 37.9842 84.3125 38.0051 84.3669 38.0051C84.4214 38.0051 84.4738 37.9842 84.5133 37.9467C84.5528 37.9092 84.5764 37.858 84.5793 37.8036Z" fill="black"/>
<path d="M53.7719 84.3664C56.6635 83.2831 59.6737 82.5476 62.7391 82.1754C63.0067 82.143 63.0096 81.7183 62.7391 81.7508C59.635 82.1188 56.5865 82.8595 53.6596 83.9568C53.4052 84.0518 53.5153 84.4637 53.7719 84.3664Z" fill="black"/>
<path d="M62.2376 79.887C59.0961 80.3918 56.0219 81.2506 53.0735 82.4469C52.8233 82.5483 52.9328 82.9591 53.1894 82.8565C56.1382 81.6616 59.2123 80.8029 62.3535 80.2965C62.6194 80.2543 62.507 79.8447 62.2376 79.887Z" fill="black"/>
<path d="M8.58387 21.2484C8.73797 21.4714 9.10525 21.2594 8.94999 21.034L5.53206 16.0763C5.37797 15.8527 5.01068 16.0647 5.16536 16.2907L8.58387 21.2484Z" fill="black"/>
<path d="M11.3639 20.8581C11.4219 21.1252 11.8332 21.0122 11.7735 20.7458L10.1515 13.4279C10.0935 13.1614 9.68279 13.2738 9.74188 13.5438C9.92205 14.3635 11.1664 19.9683 11.3639 20.8581Z" fill="black"/>
</svg>
