<svg xmlns="http://www.w3.org/2000/svg" xmlns:xlink="http://www.w3.org/1999/xlink" id="Layer_1" data-name="Layer 1" viewBox="0 0 635 635"><defs><style>.cls-1{fill:none;}.cls-2{fill:#696ddf;}.cls-3{clip-path:url(#clip-path);}</style><clipPath id="clip-path"><rect class="cls-1" y="1" width="635" height="635"/></clipPath></defs><title>Artboard 1 copy</title><rect class="cls-2" y="1" width="635" height="635"/><g class="cls-3"><rect class="cls-2" x="159.14" y="-89.67" width="61.98" height="219.94" transform="translate(20.49 108.52) rotate(-33.57)"/><path d="M274.52,90.94l-51.65,34.28,6.09,1.59L187.77,64.75,122.41-33.72,107.34-56.44l-1.6,6.09,51.65-34.28-6.09-1.59,41.19,62.06,65.35,98.47L272.92,97c3.15,4.75,10.86.3,7.68-4.49L239.41,30.47,174.06-68,159-90.71c-1.27-1.92-4-3-6.08-1.6L101.25-58c-1.91,1.28-3,4-1.59,6.09l41.19,62.07,65.35,98.46,15.08,22.72c1.27,1.92,4,3,6.08,1.6L279,98.62C283.75,95.47,279.3,87.77,274.52,90.94Z"/><path class="cls-2" d="M336.78,47.31,148.46,159.75s62.62,45.6,110.14,67.55c31.25,14.44,78.29,26.46,78.29,26.46l48.91-36.43Z"/><path d="M334.54,43.47l-63.7,38L169.39,142.07l-23.18,13.84c-3.08,1.84-2.64,5.76,0,7.68,32.87,23.91,67.5,46.74,104,64.64,23.13,11.33,47.86,19.28,72.59,26.3,4,1.13,12.16,5.13,16.32,3.06,4-2,7.73-5.76,11.28-8.41l37.61-28a4.62,4.62,0,0,0,2-5l-16.57-57.49-26.4-91.58-6-20.95c-1.58-5.49-10.17-3.15-8.58,2.37L349.07,106l26.4,91.58,6,21,2-5-48.91,36.43,3.43-.45c-26.6-6.81-53.54-14.93-78.44-26.57-31.11-14.55-60.3-33.47-88.63-52.78-6.82-4.66-13.62-9.35-20.3-14.21v7.68l63.7-38L315.84,65,339,51.15C343.94,48.22,339.47,40.53,334.54,43.47Z"/><polygon class="cls-2" points="396.8 261.58 348.32 298.46 336.89 253.76 385.8 217.33 396.8 261.58"/><path d="M394.55,257.75l-48.47,36.87,6.53,2.66-11.44-44.7-2,5L388,221.17l-6.53-2.65,11,44.25c1.38,5.55,10,3.2,8.58-2.37l-11-44.25c-.63-2.55-4.22-4.38-6.53-2.66l-48.91,36.43a4.65,4.65,0,0,0-2,5L344,299.64c.65,2.52,4.23,4.42,6.54,2.66L399,265.43C403.54,262,399.11,254.28,394.55,257.75Z"/><path class="cls-2" d="M348.32,298.46C211.86,269.21,150.45,160.75,150.45,160.75"/><path d="M349.5,294.17a308.31,308.31,0,0,1-124.84-58.55,312.44,312.44,0,0,1-61.56-63.71,158.61,158.61,0,0,1-8.81-13.4c-2.82-5-10.51-.5-7.68,4.49,8.06,14.19,18.79,27.23,29.61,39.35a326.3,326.3,0,0,0,90.9,71.33,315.1,315.1,0,0,0,80,29.07c5.58,1.21,8-7.36,2.36-8.58Z"/><path d="M578.9,278.51a4.48,4.48,0,0,1,4.28,5.63c-.06.22-.16.45-.21.68-1.11,5.1-3.14,10.16-4.69,15.14q-4.92,15.9-9.85,31.8l-30,96.91L503.81,540.28q-14.35,46.29-28.69,92.59-5.94,19.17-11.89,38.34a4.65,4.65,0,0,1-.81,1.55c1.8-2.58.64-7.18-3.48-7.18h-3.41c1.15-4.22,2.74-8.41,4-12.55l9.85-31.81q15-48.45,30-96.91,17.28-55.8,34.58-111.6,14.36-46.31,28.69-92.59,5-16.14,10-32.28a39.75,39.75,0,0,0,5.3-.43,5.06,5.06,0,0,1,.87,0l-4.29-5.63c-.63,2-1.25,4-1.88,6.06-4.79.09-9.83-.43-14.38-.43h-476a29.28,29.28,0,0,0-2-5,3.25,3.25,0,0,1-.21-.67l-4.29,5.63h6.46c1,3.4,1.79,7,2.77,10.18q5,15.9,9.94,31.81,15.14,48.45,30.28,96.91,17.45,55.8,34.88,111.6,14.46,46.3,28.93,92.59,5.49,17.54,11,35.08h-3.26l4.28,3.27-1-3.27h255.4c-.25.86-.47,1.73-.66,2.59-.06.23-.14.45-.21.68-1.49,4.8,4.91,7.19,7.66,4a4.07,4.07,0,0,1-3.38,1.59H196.87a4.55,4.55,0,0,1-4.29-3.27c-.07-.22-.13-.46-.21-.68-5.85-15.19-9.82-31.41-14.68-46.94q-15.13-48.47-30.28-96.91Q130,470.88,112.53,415.07,98.07,368.78,83.6,322.48q-6-19.17-12-38.34a4.49,4.49,0,0,1,4.29-5.63h.87c20.29-.77,40.76,0,61.06,0H578.9Z"/><path d="M574.61,281.78l4.29,5.63a5.06,5.06,0,0,0-.87,0,39.75,39.75,0,0,1-5.3.43C573.36,285.82,574,283.8,574.61,281.78Z"/><path class="cls-2" d="M572.73,287.84q-5,16.14-10,32.28Q548.38,366.41,534,412.71q-17.29,55.8-34.58,111.6-15,48.47-30,96.91L459.56,653c-1.29,4.14-2.88,8.33-4,12.55H200.13q-5.48-17.55-11-35.08-14.46-46.29-28.93-92.59-17.44-55.8-34.88-111.6-15.14-48.46-30.28-96.91-5-15.9-9.94-31.81c-1-3.14-1.72-6.78-2.77-10.18h476C562.9,287.41,567.94,287.93,572.73,287.84Z"/><path d="M82.37,287.41H75.91l4.29-5.63a3.25,3.25,0,0,0,.21.67A29.28,29.28,0,0,1,82.37,287.41Z"/><polyline class="cls-2" points="143.48 343.44 45.67 343.44 45.67 221.47 605.1 221.47 605.1 343.44 506.96 343.44"/><path d="M93.48,339H45.67l4.44,4.45v-122l-4.44,4.45H582.45c6.95,0,14.84,1.05,21.74,0a5.53,5.53,0,0,1,.91,0l-4.44-4.45v122L605.1,339H558c-5.72,0-5.73,8.89,0,8.89H605.1a4.5,4.5,0,0,0,4.45-4.44v-122A4.52,4.52,0,0,0,605.1,217H114.31c-22.52,0-45.22-.82-67.73,0h-.91a4.51,4.51,0,0,0-4.45,4.45v122a4.51,4.51,0,0,0,4.45,4.44H95.48c5.72,0,5.73-8.89,0-8.89Z"/><path d="M325.82,449.51a17,17,0,1,1-17,17,17,17,0,0,1,17-17"/></g></svg>